# Blender 4.0.2
# www.blender.org
mtllib 2x1SlopedSideBasePanel.mtl
o 2x1SlopedSideBasePanel
v 0.500000 0.500000 0.499950
v 0.500000 0.500000 -0.000000
v 0.500000 -0.500000 0.499950
v 0.500000 -0.500000 -0.499950
v 0.460000 0.500000 0.499950
v 0.460000 0.500000 -0.000000
v 0.460000 -0.500000 0.499950
v 0.460000 -0.500000 -0.499950
vn 1.0000 -0.0000 -0.0000
vn -1.0000 -0.0000 -0.0000
vn -0.0000 0.4472 -0.8944
vn -0.0000 1.0000 -0.0000
vn -0.0000 -0.0000 1.0000
vn -0.0000 -1.0000 -0.0000
vt 0.986144 0.540077
vt 0.501742 0.292594
vt 0.501742 0.048830
vt 0.990172 0.048830
vt 0.572482 0.045438
vt 0.922965 0.045438
vt 0.922965 0.059457
vt 0.572482 0.059457
vt 0.835335 0.059457
vt 0.660111 0.059457
vt 0.660111 0.045438
vt 0.835335 0.045438
vt 0.572482 0.045438
vt 0.922965 0.045438
vt 0.922965 0.059457
vt 0.572482 0.059458
vt 0.572499 0.045438
vt 0.922947 0.045438
vt 0.922947 0.059457
vt 0.572499 0.059457
s 0
usemtl 
f 4/1/1 2/2/1 1/3/1
f 1/3/1 3/4/1 4/1/1
f 5/3/2 6/2/2 8/1/2
f 8/1/2 7/4/2 5/3/2
f 2/5/3 4/6/3 8/7/3
f 8/7/3 6/8/3 2/5/3
f 1/9/4 2/10/4 6/11/4
f 6/11/4 5/12/4 1/9/4
f 3/13/5 1/14/5 5/15/5
f 5/15/5 7/16/5 3/13/5
f 4/17/6 3/18/6 7/19/6
f 7/19/6 8/20/6 4/17/6
