# Blender 4.0.2
# www.blender.org
mtllib 2x1SlopedPanelTip.mtl
o 2x1SlopedPanelTip
v 0.500000 -0.500000 -0.000000
v -0.500000 -0.500000 -0.000000
v -0.500000 -0.500000 0.044721
v 0.500000 -0.500000 0.044721
v 0.500000 0.500000 0.500000
v -0.500000 0.500000 0.500000
v 0.500000 0.410558 0.500000
v -0.500000 0.410558 0.500000
vn -0.0000 0.4472 -0.8944
vn -0.0000 0.4476 -0.8942
vn -0.0000 -0.4472 0.8944
vn 1.0000 -0.0000 -0.0000
vn -0.0000 -1.0000 -0.0000
vn -1.0000 -0.0000 -0.0000
vn -0.0000 -0.0000 1.0000
vt 0.017674 0.024201
vt 0.982024 0.024200
vt 0.982024 0.688821
vt 0.017674 0.688821
vt 0.964773 0.688821
vt 0.964773 0.024200
vt 0.017965 0.024201
vt 0.017965 0.688821
vt 0.013164 0.806215
vt -0.004341 0.771206
vt 0.974194 0.771206
vt 0.904176 0.806215
vt 0.056236 0.769486
vt 0.931464 0.769486
vt 0.931464 0.808627
vt 0.056236 0.808627
vt 0.981495 0.806451
vt 0.002960 0.806451
vt 0.020465 0.771442
vt 0.911477 0.771442
vt 0.904022 0.827898
vt 0.168730 0.827898
vt 0.168731 0.762131
vt 0.904022 0.762131
s 0
usemtl 
f 5/1/1 1/2/2 2/3/1
f 2/3/1 6/4/1 5/1/1
f 3/5/3 4/6/3 7/7/3
f 7/7/3 8/8/3 3/5/3
f 4/9/4 1/10/4 5/11/4
f 5/11/4 7/12/4 4/9/4
f 4/13/5 3/14/5 2/15/5
f 2/15/5 1/16/5 4/13/5
f 6/17/6 2/18/6 3/19/6
f 3/19/6 8/20/6 6/17/6
f 5/21/7 6/22/7 8/23/7
f 8/23/7 7/24/7 5/21/7
