# Blender 4.0.2
# www.blender.org
mtllib 2x1SlopeSideBasePanelInv.mtl
o 2x1SlopeSideBasePanelInv
v -0.500000 0.500000 0.499950
v -0.500000 0.500000 -0.000000
v -0.500000 -0.500000 0.499950
v -0.500000 -0.500000 -0.499950
v -0.460000 0.500000 0.499950
v -0.460000 0.500000 -0.000000
v -0.460000 -0.500000 0.499950
v -0.460000 -0.500000 -0.499950
vn -1.0000 -0.0000 -0.0000
vn 1.0000 -0.0000 -0.0000
vn -0.0000 0.4472 -0.8944
vn -0.0000 1.0000 -0.0000
vn -0.0000 -0.0000 1.0000
vn -0.0000 -1.0000 -0.0000
vt 0.501742 0.048830
vt 0.501742 0.292594
vt 0.986144 0.540077
vt 0.990172 0.048830
vt 0.793112 0.059022
vt 0.793112 0.045632
vt 0.458369 0.045632
vt 0.458369 0.059022
vt 0.542063 0.045632
vt 0.542063 0.059022
vt 0.709418 0.059022
vt 0.709418 0.045632
vt 0.793112 0.059022
vt 0.793095 0.059022
vt 0.793095 0.045632
vt 0.458386 0.045632
vt 0.458386 0.059022
s 0
usemtl 
f 1/1/1 2/2/1 4/3/1
f 4/3/1 3/4/1 1/1/1
f 8/3/2 6/2/2 5/1/2
f 5/1/2 7/4/2 8/3/2
f 8/5/3 4/6/3 2/7/3
f 2/7/3 6/8/3 8/5/3
f 6/9/4 2/10/4 1/11/4
f 1/11/4 5/12/4 6/9/4
f 5/13/5 1/6/5 3/7/5
f 3/7/5 7/8/5 5/13/5
f 7/14/6 3/15/6 4/16/6
f 4/16/6 8/17/6 7/14/6
