# Blender 4.0.2
# www.blender.org
mtllib Corner2x1TipInv.mtl
o Corner2x1TipInv
v -0.500000 -0.500000 0.500000
v -0.500000 0.500000 0.000000
v -0.500000 -0.500000 -0.500000
v -0.500000 0.500000 -0.500000
v 0.500000 -0.500000 0.500000
v -0.500000 0.000000 0.500000
v 0.500000 -0.500000 -0.500000
v 0.500000 0.500000 -0.500000
vn -1.0000 -0.0000 -0.0000
vn -0.0000 -0.0000 -1.0000
vn 1.0000 -0.0000 -0.0000
vn -0.0000 1.0000 -0.0000
vn -0.0000 -1.0000 -0.0000
vn 0.3333 0.6667 0.6667
vn -0.0000 -0.0000 1.0000
vt 0.375000 0.250000
vt 0.000000 0.000000
vt 0.625000 0.250000
vt 0.375000 0.500000
vt 0.625000 0.500000
vt 0.375000 0.750000
vt 0.125000 0.750000
vt 0.125000 0.500000
s 0
usemtl 
f 3/1/1 2/2/1 4/3/1
f 4/3/2 7/4/2 3/1/2
f 8/5/3 5/6/3 7/4/3
f 8/5/4 4/3/4 2/2/4
f 7/4/5 1/7/5 3/8/5
f 5/6/6 2/2/6 6/2/6
f 1/7/1 6/2/1 3/8/1
f 4/3/2 8/5/2 7/4/2
f 2/2/6 5/6/6 8/5/6
f 6/2/1 2/2/1 3/1/1
f 7/4/5 5/6/5 1/7/5
f 6/2/7 1/7/7 5/6/7
