# Blender 4.0.2
# www.blender.org
mtllib Corner2x1Tip.mtl
o Corner2x1Tip
v -0.500000 -0.500000 0.000000
v -0.500000 -0.500000 -0.500000
v -0.500000 0.000000 -0.500000
v 0.500000 -0.500000 -0.500000
vn -0.0000 -0.0000 -1.0000
vn 0.3333 0.6667 0.6667
vn -0.0000 -1.0000 -0.0000
vn -1.0000 -0.0000 -0.0000
vt 0.625000 0.250000
vt 0.375000 0.500000
vt 0.375000 0.250000
vt 0.125000 0.750000
vt 0.125000 0.500000
s 0
usemtl 
f 3/1/1 4/2/1 2/3/1
f 3/1/2 1/4/2 4/2/2
f 4/2/3 1/4/3 2/5/3
f 2/3/4 1/4/4 3/1/4
