# Blender 4.0.2
# www.blender.org
mtllib Corner2x1BaseInv.mtl
o Corner2x1BaseInv
v -0.500000 -0.500000 0.500000
v -0.500000 0.500000 0.500000
v -0.500000 -0.500000 -0.500000
v -0.500000 0.500000 -0.500000
v 0.500000 -0.500000 0.500000
v 0.500000 0.000000 0.500000
v 0.500000 -0.500000 -0.500000
v 0.500000 0.500000 -0.500000
v 0.500000 0.500000 0.000000
vn -1.0000 -0.0000 -0.0000
vn -0.0000 -0.0000 -1.0000
vn -0.0000 1.0000 -0.0000
vn -0.0000 -0.0000 1.0000
vn -0.0000 -1.0000 -0.0000
vn 1.0000 -0.0000 -0.0000
vn 0.3333 0.6667 0.6667
vt 0.625000 0.000000
vt 0.375000 0.250000
vt 0.375000 0.000000
vt 0.625000 0.250000
vt 0.375000 0.500000
vt 0.625000 0.500000
vt 0.000000 0.000000
vt 0.125000 0.750000
vt 0.125000 0.500000
vt 0.375000 0.750000
s 0
usemtl 
f 2/1/1 3/2/1 1/3/1
f 4/4/2 7/5/2 3/2/2
f 8/6/3 4/4/3 9/7/3
f 2/1/4 1/8/4 6/7/4
f 7/5/5 1/8/5 3/9/5
f 7/5/6 6/7/6 5/10/6
f 2/1/1 4/4/1 3/2/1
f 4/4/2 8/6/2 7/5/2
f 7/5/6 8/6/6 9/7/6
f 4/4/3 2/1/3 9/7/3
f 7/5/5 5/10/5 1/8/5
f 6/7/4 1/8/4 5/10/4
f 6/7/6 7/5/6 9/7/6
f 6/7/7 9/7/7 2/1/7
