# Blender 4.0.2
# www.blender.org
mtllib CornerSquare.mtl
o CornerSquare
v -0.500000 -0.500000 0.500000
v -0.500000 -0.500000 -0.500000
v -0.500000 0.500000 -0.500000
v 0.500000 -0.500000 0.500000
v 0.500000 -0.500000 -0.500000
vn -0.0000 -1.0000 -0.0000
vn -0.0000 -0.0000 -1.0000
vn -1.0000 -0.0000 -0.0000
vn 0.7071 0.7071 -0.0000
vn -0.0000 0.7071 0.7071
vt 0.375000 0.500000
vt 0.125000 0.750000
vt 0.125000 0.500000
vt 0.000000 0.000000
vt 0.375000 0.750000
s 0
usemtl 
f 5/1/1 1/2/1 2/3/1
f 2/3/2 3/4/2 5/1/2
f 2/3/3 1/2/3 3/4/3
f 3/4/4 4/5/4 5/1/4
f 4/5/5 3/4/5 1/2/5
f 5/1/1 4/5/1 1/2/1
