# Blender 4.0.2
# www.blender.org
mtllib Corner2x1Base.mtl
o Corner2x1Base
v -0.500000 -0.500000 0.500000
v -0.500000 -0.500000 -0.500000
v -0.500000 0.500000 -0.500000
v 0.500000 -0.500000 0.000000
v 0.500000 -0.500000 -0.500000
v 0.500000 0.000000 -0.500000
vn 1.0000 -0.0000 -0.0000
vn -0.0000 -1.0000 -0.0000
vn -1.0000 -0.0000 -0.0000
vn 0.3333 0.6667 0.6667
vn -0.0000 -0.0000 -1.0000
vt 0.375000 0.500000
vt 0.625000 0.500000
vt 0.375000 0.750000
vt 0.125000 0.750000
vt 0.375000 0.250000
vt 0.625000 0.250000
vt 0.125000 0.500000
s 0
usemtl 
f 5/1/1 6/2/1 4/3/1
f 4/3/2 1/4/2 5/1/2
f 2/5/3 1/4/3 3/6/3
f 4/3/4 6/2/4 1/4/4
f 3/6/4 1/4/4 6/2/4
f 6/2/5 5/1/5 3/6/5
f 2/7/5 3/6/5 5/1/5
f 2/7/2 5/1/2 1/4/2
