# Blender 4.0.2
# www.blender.org
mtllib HalfSlopeInv.mtl
o HalfSlopeInv
v -0.500000 -0.500000 0.500000
v -0.500000 0.000000 0.500000
v -0.500000 -0.500000 -0.500000
v -0.500000 0.500000 -0.500000
v 0.500000 -0.500000 0.500000
v 0.500000 0.000000 0.500000
v 0.500000 -0.500000 -0.500000
v 0.500000 0.500000 -0.500000
v -0.500000 0.500000 0.000000
v 0.500000 0.500000 0.000000
vn -0.0000 1.0000 -0.0000
vn -0.0000 -0.0000 -1.0000
vn 1.0000 -0.0000 -0.0000
vn -1.0000 -0.0000 -0.0000
vn -0.0000 -1.0000 -0.0000
vn -0.0000 -0.0000 1.0000
vn -0.0000 0.7071 0.7071
vt 0.625000 0.500000
vt 0.625000 0.250000
vt 0.000000 0.000000
vt 0.375000 0.500000
vt 0.375000 0.250000
vt 0.125000 0.750000
vt 0.125000 0.500000
vt 0.375000 0.750000
s 0
usemtl 
f 8/1/1 4/2/1 9/3/1
f 4/2/2 7/4/2 3/5/2
f 7/4/3 8/1/3 10/3/3
f 3/5/4 9/3/4 4/2/4
f 7/4/5 1/6/5 3/7/5
f 1/6/4 2/3/4 3/7/4
f 6/3/6 1/6/6 5/8/6
f 4/2/2 8/1/2 7/4/2
f 7/4/3 6/3/3 5/8/3
f 10/3/1 8/1/1 9/3/1
f 7/4/5 5/8/5 1/6/5
f 6/3/6 2/3/6 1/6/6
f 6/3/3 7/4/3 10/3/3
f 2/3/4 9/3/4 3/5/4
f 9/3/7 2/3/7 10/3/7
f 2/3/7 6/3/7 10/3/7
