# Blender 4.0.2
# www.blender.org
mtllib HalfSlope.mtl
o HalfSlope
v -0.500000 -0.500000 0.500000
v -0.500000 0.000000 0.500000
v -0.500000 -0.500000 -0.500000
v -0.500000 0.000000 -0.500000
v 0.000000 -0.500000 0.500000
v 0.000000 -0.500000 -0.500000
vn -1.0000 -0.0000 -0.0000
vn -0.0000 -0.0000 -1.0000
vn 0.7071 0.7071 -0.0000
vn -0.0000 -0.0000 1.0000
vn -0.0000 -1.0000 -0.0000
vt 0.625000 0.000000
vt 0.375000 0.250000
vt 0.375000 0.000000
vt 0.125000 0.500000
vt 0.625000 0.250000
vt 0.375000 0.500000
vt 0.125000 0.750000
vt 0.375000 0.750000
s 0
usemtl 
f 2/1/1 3/2/1 1/3/1
f 3/4/2 4/5/2 6/6/2
f 2/1/3 6/6/3 4/5/3
f 2/1/4 1/7/4 5/8/4
f 6/6/5 1/7/5 3/4/5
f 2/1/1 4/5/1 3/2/1
f 2/1/3 5/8/3 6/6/3
f 6/6/5 5/8/5 1/7/5
