# Blender 4.0.2
# www.blender.org
mtllib RoundPanelFace.mtl
o RoundPanelFace
v -0.500000 -0.500000 0.500000
v -0.500000 -0.304910 0.480785
v -0.500000 -0.117317 0.423879
v -0.500000 0.055570 0.331469
v -0.500000 0.207107 0.207107
v -0.500000 0.331470 0.055570
v -0.500000 0.423879 -0.117317
v -0.500000 0.480785 -0.304910
v -0.500000 0.500000 -0.500000
v -0.458148 -0.304910 0.480785
v -0.458148 -0.117317 0.423879
v -0.458148 0.055570 0.331469
v -0.458148 0.423879 -0.117317
v -0.458148 0.480785 -0.304910
v -0.458148 0.500000 -0.500000
v -0.458148 0.331470 0.055570
v -0.458148 0.207107 0.207107
v -0.458147 -0.500000 -0.500000
v -0.458148 -0.500000 0.500000
v -0.500000 -0.500000 -0.500000
vn -0.0000 0.0980 0.9952
vn 0.0069 0.1951 0.9808
vn -0.0000 0.1954 0.9807
vn 0.0770 0.2313 0.9698
vn 0.0069 0.3825 0.9239
vn -0.0000 0.3828 0.9238
vn 0.0771 0.4159 0.9061
vn 0.0069 0.5552 0.8317
vn -0.0000 0.5555 0.8315
vn 0.0770 0.9349 0.3465
vn 0.0068 0.9807 0.1956
vn -0.0000 0.9807 0.1954
vn 0.0774 0.9844 0.1578
vn -0.0000 0.9952 0.0980
vn -0.0069 0.9239 0.3827
vn -0.0771 0.8493 0.5223
vn -0.0000 0.9240 0.3825
vn 0.0772 0.7310 0.6780
vn 0.0069 0.8314 0.5557
vn -0.0000 0.8315 0.5555
vn 0.0773 0.5846 0.8076
vn 0.0069 0.7069 0.7073
vn -0.0000 0.7071 0.7071
vn -0.0000 -0.0000 -1.0000
vn 1.0000 -0.0000 -0.0000
vn -0.0000 -1.0000 -0.0000
vn -1.0000 -0.0000 -0.0000
vn -0.0774 0.1578 0.9844
vn -0.0068 0.1956 0.9807
vn -0.0773 0.3467 0.9348
vn -0.0069 0.3830 0.9237
vn -0.0771 0.5223 0.8493
vn -0.0068 0.9240 0.3822
vn -0.0770 0.9698 0.2313
vn -0.0069 0.9808 0.1951
vn 0.0774 0.9062 0.4157
vn 0.0069 0.8317 0.5552
vn -0.0069 0.7073 0.7069
vn -0.0773 0.8076 0.5846
vn -0.0069 0.5557 0.8314
vn -0.0772 0.6780 0.7310
vt 0.333807 0.427900
vt 0.337457 0.462098
vt 0.333807 0.462098
vt 0.337457 0.496295
vt 0.333807 0.496295
vt 0.337457 0.530494
vt 0.333807 0.530494
vt 0.333807 0.633087
vt 0.337457 0.667286
vt 0.333807 0.667286
vt 0.337457 0.701484
vt 0.333807 0.701484
vt 0.337457 0.598890
vt 0.337457 0.633087
vt 0.333807 0.564692
vt 0.333807 0.598890
vt 0.337457 0.564692
vt 0.337457 0.477467
vt 0.333806 0.651916
vt 0.333806 0.477467
vt 0.158330 0.999266
vt 0.159903 0.962990
vt 0.240154 0.999266
vt 0.164559 0.928107
vt 0.172120 0.895960
vt 0.182296 0.867782
vt 0.194695 0.844657
vt 0.208841 0.827474
vt 0.224191 0.816892
vt 0.240154 0.813319
vt 0.337457 0.651916
vt 0.159121 0.961181
vt 0.163777 0.926299
vt 0.239372 0.997458
vt 0.171338 0.894151
vt 0.181514 0.865973
vt 0.193913 0.842849
vt 0.208060 0.825665
vt 0.223409 0.815084
vt 0.239372 0.811511
vt 0.157549 0.997458
vt 0.337457 0.427900
s 0
usemtl 
f 1/1/1 10/2/2 2/3/3
f 2/3/4 11/4/5 3/5/6
f 3/5/7 12/6/8 4/7/9
f 7/8/10 14/9/11 8/10/12
f 8/10/13 15/11/14 9/12/14
f 7/8/15 16/13/16 13/14/17
f 5/15/18 16/13/19 6/16/20
f 4/7/21 17/17/22 5/15/23
f 20/18/24 15/19/24 18/20/24
f 15/21/25 14/22/25 18/23/25
f 14/22/25 13/24/25 18/23/25
f 13/24/25 16/25/25 18/23/25
f 16/25/25 17/26/25 18/23/25
f 17/26/25 12/27/25 18/23/25
f 12/27/25 11/28/25 18/23/25
f 11/28/25 10/29/25 18/23/25
f 10/29/25 19/30/25 18/23/25
f 19/20/26 20/31/26 18/19/26
f 2/32/27 3/33/27 20/34/27
f 3/33/27 4/35/27 20/34/27
f 4/35/27 5/36/27 20/34/27
f 5/36/27 6/37/27 20/34/27
f 6/37/27 7/38/27 20/34/27
f 7/38/27 8/39/27 20/34/27
f 8/39/27 9/40/27 20/34/27
f 1/41/27 2/32/27 20/34/27
f 1/1/1 19/42/1 10/2/28
f 2/3/29 10/2/3 11/4/30
f 3/5/31 11/4/6 12/6/32
f 7/8/33 13/14/17 14/9/34
f 8/10/35 14/9/12 15/11/14
f 7/8/36 6/16/20 16/13/37
f 5/15/38 17/17/23 16/13/39
f 4/7/40 12/6/9 17/17/41
f 20/18/24 9/31/24 15/19/24
f 19/20/26 1/18/26 20/31/26
