# Blender 4.0.2
# www.blender.org
mtllib RoundInvertedCorner.mtl
o RoundInvertedCorner
v 0.401983 0.495185 0.500000
v 0.304910 0.480785 0.500000
v 0.209716 0.456940 0.500000
v 0.117317 0.423880 0.500000
v 0.028603 0.381921 0.500000
v -0.055570 0.331470 0.500000
v -0.134393 0.273010 0.500000
v 0.500000 -0.500000 0.500000
v -0.207107 0.207107 0.500000
v 0.500000 0.500000 -0.500000
v 0.500000 0.500000 0.500000
v -0.273010 0.134393 0.500000
v -0.500000 0.495185 -0.401983
v -0.331469 0.055570 0.500000
v 0.401983 0.500000 0.495185
v 0.304910 0.500000 0.480785
v -0.500000 0.480785 -0.304910
v -0.381921 -0.028603 0.500000
v 0.209715 0.500000 0.456940
v -0.500000 0.456940 -0.209715
v -0.423879 -0.117317 0.500000
v 0.117317 0.500000 0.423880
v -0.500000 0.423880 -0.117316
v -0.456940 -0.209715 0.500000
v 0.028603 0.500000 0.381921
v -0.500000 0.381921 -0.028603
v -0.480785 -0.304910 0.500000
v -0.500000 0.331470 0.055570
v -0.055570 0.500000 0.331470
v -0.495185 -0.401983 0.500000
v -0.500000 0.273010 0.134393
v -0.134393 0.500000 0.273010
v -0.500000 0.207107 0.207107
v -0.207107 0.500000 0.207107
v -0.500000 0.134393 0.273011
v -0.273010 0.500000 0.134393
v -0.500000 0.055570 0.331470
v -0.331470 0.500000 0.055570
v -0.381921 0.500000 -0.028603
v -0.500000 -0.028603 0.381921
v -0.423879 0.500000 -0.117316
v -0.500000 -0.117317 0.423880
v -0.500000 -0.209715 0.456940
v -0.456940 0.500000 -0.209715
v -0.500000 -0.304910 0.480785
v -0.480785 0.500000 -0.304910
v -0.495185 0.500000 -0.401983
v -0.500000 -0.401983 0.495185
v -0.500000 -0.500000 -0.500000
v -0.500000 0.500000 -0.500000
v -0.500000 -0.500000 0.500000
v -0.207107 0.207107 0.207107
v -0.273010 0.273010 0.134393
v -0.331470 0.331470 0.055570
v -0.381921 0.381921 -0.028603
v -0.423879 0.423880 -0.117316
v -0.456940 0.456940 -0.209715
v -0.480785 0.480785 -0.304910
v -0.495185 0.495185 -0.401983
v 0.401983 0.495185 0.495185
v 0.304910 0.480785 0.480785
v 0.209715 0.456940 0.456940
v 0.117317 0.423880 0.423880
v 0.028603 0.381921 0.381921
v -0.055570 0.331470 0.331470
v -0.134393 0.273010 0.273010
v -0.273010 0.134393 0.273011
v -0.331469 0.055570 0.331470
v -0.381921 -0.028603 0.381921
v -0.423879 -0.117317 0.423880
v -0.456940 -0.209715 0.456940
v -0.480785 -0.304910 0.480785
v -0.495185 -0.401983 0.495185
v 0.500000 -0.500000 -0.500000
vn -0.0491 -0.0000 0.9988
vn -0.1467 -0.0000 0.9892
vn -0.2430 -0.0000 0.9700
vn -0.3369 -0.0000 0.9415
vn -0.4276 -0.0000 0.9040
vn -0.5141 -0.0000 0.8577
vn -0.5957 -0.0000 0.8032
vn -0.6716 -0.0000 0.7410
vn -0.7410 -0.0000 0.6716
vn -0.8032 -0.0000 0.5957
vn -0.8577 -0.0000 0.5141
vn -0.9040 -0.0000 0.4276
vn -0.9415 -0.0000 0.3369
vn -0.9700 -0.0000 0.2430
vn -0.9892 -0.0000 0.1467
vn -0.9988 -0.0000 0.0491
vn -0.0000 1.0000 -0.0000
vn -0.0000 0.9988 0.0491
vn -0.0000 0.9892 0.1467
vn -0.0000 0.9700 0.2430
vn -0.0000 0.9415 0.3369
vn -0.0000 0.9040 0.4276
vn -0.0000 0.8577 0.5141
vn -0.0000 0.8032 0.5957
vn -0.0000 0.7410 0.6716
vn -0.0000 0.6716 0.7410
vn -0.0000 0.5957 0.8032
vn -0.0000 0.5141 0.8577
vn -0.0000 0.4276 0.9040
vn -0.0000 0.3369 0.9415
vn -0.0000 0.2430 0.9700
vn -0.0000 0.1467 0.9892
vn -0.0000 0.0491 0.9988
vn -1.0000 -0.0000 -0.0000
vn -0.0491 0.9988 -0.0000
vn -0.1467 0.9892 -0.0000
vn -0.2430 0.9700 -0.0000
vn -0.3369 0.9415 -0.0000
vn -0.4276 0.9040 -0.0000
vn -0.5141 0.8577 -0.0000
vn -0.5957 0.8032 -0.0000
vn -0.6716 0.7410 -0.0000
vn -0.7410 0.6716 -0.0000
vn -0.8032 0.5957 -0.0000
vn -0.8577 0.5141 -0.0000
vn -0.9040 0.4276 -0.0000
vn -0.9415 0.3369 -0.0000
vn -0.9700 0.2430 -0.0000
vn -0.9892 0.1467 -0.0000
vn -0.9988 0.0491 -0.0000
vn -0.0000 -0.0000 1.0000
vn -0.0000 -0.0000 -1.0000
vn 1.0000 -0.0000 -0.0000
vn -0.0000 -1.0000 -0.0000
vt 0.734375 1.000000
vt 0.734375 0.997592
vt 0.750000 1.000000
vt 0.718750 1.000000
vt 0.718750 0.990393
vt 0.703125 1.000000
vt 0.703125 0.978470
vt 0.687500 1.000000
vt 0.687500 0.961940
vt 0.671875 1.000000
vt 0.671875 0.940961
vt 0.656250 1.000000
vt 0.656250 0.915735
vt 0.640625 1.000000
vt 0.640625 0.886505
vt 0.625000 1.000000
vt 0.625000 0.853553
vt 0.609375 0.886505
vt 0.609375 1.000000
vt 0.593750 0.915735
vt 0.593750 1.000000
vt 0.578125 0.940961
vt 0.578125 1.000000
vt 0.562500 0.961940
vt 0.562500 1.000000
vt 0.546875 0.978470
vt 0.546875 1.000000
vt 0.531250 0.990393
vt 0.531250 1.000000
vt 0.515625 0.997592
vt 0.515625 1.000000
vt 0.500000 1.000000
vt 0.363135 0.038339
vt 0.383337 0.050447
vt 0.250000 0.250000
vt 0.718750 0.990393
vt 0.703125 0.978470
vt 0.671875 0.940961
vt 0.656250 0.915735
vt 0.515625 0.997592
vt 0.011156 0.226476
vt 0.010000 0.250000
vt 0.734375 0.500000
vt 0.750000 0.500000
vt 0.734375 0.502408
vt 0.718750 0.500000
vt 0.718750 0.509607
vt 0.703125 0.500000
vt 0.703125 0.521530
vt 0.687500 0.500000
vt 0.687500 0.538060
vt 0.671875 0.500000
vt 0.671875 0.559039
vt 0.656250 0.500000
vt 0.656250 0.584265
vt 0.640625 0.500000
vt 0.640625 0.613495
vt 0.625000 0.500000
vt 0.625000 0.646447
vt 0.609375 0.613495
vt 0.593750 0.584265
vt 0.609375 0.500000
vt 0.578125 0.559039
vt 0.593750 0.500000
vt 0.562500 0.538060
vt 0.578125 0.500000
vt 0.546875 0.521530
vt 0.562500 0.500000
vt 0.531250 0.509607
vt 0.546875 0.500000
vt 0.515625 0.502408
vt 0.531250 0.500000
vt 0.500000 0.500000
vt 0.515625 0.500000
vt 0.773524 0.011156
vt 0.750000 0.010000
vt 0.990000 0.250000
vt 0.000000 0.000000
vt 0.402254 0.064478
vt 0.419706 0.080294
vt 0.435522 0.097746
vt 0.449553 0.116663
vt 0.461661 0.136865
vt 0.471731 0.158156
vt 0.479666 0.180332
vt 0.485388 0.203178
vt 0.488844 0.226476
vt 0.490000 0.250000
vt 0.250000 0.010000
vt 0.273524 0.011156
vt 0.296822 0.014612
vt 0.319668 0.020334
vt 0.341844 0.028269
vt 0.226476 0.011156
vt 0.203178 0.014612
vt 0.180332 0.020334
vt 0.158156 0.028269
vt 0.136865 0.038339
vt 0.116663 0.050447
vt 0.097746 0.064478
vt 0.080294 0.080294
vt 0.064478 0.097746
vt 0.050447 0.116663
vt 0.038339 0.136865
vt 0.028269 0.158156
vt 0.020334 0.180332
vt 0.014612 0.203178
vt 0.988844 0.226476
vt 0.985388 0.203178
vt 0.979666 0.180332
vt 0.971731 0.158156
vt 0.961661 0.136865
vt 0.949553 0.116663
vt 0.935522 0.097746
vt 0.919706 0.080294
vt 0.902254 0.064478
vt 0.883337 0.050447
vt 0.863135 0.038339
vt 0.841844 0.028269
vt 0.819668 0.020334
vt 0.796822 0.014612
s 0
usemtl Material
f 15/1/1 60/2/1 11/3/1
f 60/2/2 16/4/2 61/5/2
f 61/5/3 19/6/3 62/7/3
f 62/7/4 22/8/4 63/9/4
f 63/9/5 25/10/5 64/11/5
f 64/11/6 29/12/6 65/13/6
f 65/13/7 32/14/7 66/15/7
f 66/15/8 34/16/8 52/17/8
f 34/16/9 53/18/9 52/17/9
f 36/19/10 54/20/10 53/18/10
f 38/21/11 55/22/11 54/20/11
f 39/23/12 56/24/12 55/22/12
f 41/25/13 57/26/13 56/24/13
f 44/27/14 58/28/14 57/26/14
f 46/29/15 59/30/15 58/28/15
f 59/30/16 47/31/16 50/32/16
f 39/33/17 38/34/17 10/35/17
f 49/42/52 10/35/52 74/78/52
f 11/77/53 74/78/53 10/35/53
f 60/2/2 15/1/2 16/4/2
f 61/5/3 16/4/3 19/6/3
f 62/7/4 19/6/4 22/8/4
f 63/9/5 22/8/5 25/10/5
f 64/11/6 25/10/6 29/12/6
f 65/13/7 29/12/7 32/14/7
f 66/15/8 32/14/8 34/16/8
f 34/16/9 36/19/9 53/18/9
f 36/19/10 38/21/10 54/20/10
f 38/21/11 39/23/11 55/22/11
f 39/23/12 41/25/12 56/24/12
f 41/25/13 44/27/13 57/26/13
f 44/27/14 46/29/14 58/28/14
f 46/29/15 47/31/15 59/30/15
f 38/34/17 36/79/17 10/35/17
f 36/79/17 34/80/17 10/35/17
f 34/80/17 32/81/17 10/35/17
f 32/81/17 29/82/17 10/35/17
f 29/82/17 25/83/17 10/35/17
f 25/83/17 22/84/17 10/35/17
f 22/84/17 19/85/17 10/35/17
f 19/85/17 16/86/17 10/35/17
f 16/86/17 15/87/17 10/35/17
f 15/87/17 11/88/17 10/35/17
f 10/35/17 50/89/17 47/90/17
f 47/90/17 46/91/17 10/35/17
f 46/91/17 44/92/17 10/35/17
f 44/92/17 41/93/17 10/35/17
f 41/93/17 39/33/17 10/35/17
f 49/42/52 50/42/52 10/35/52
f 11/77/53 8/77/53 74/78/53
usemtl 
f 13/1/18 59/2/18 50/3/18
f 59/2/19 17/4/19 58/36/19
f 58/36/20 20/6/20 57/37/20
f 57/37/21 23/8/21 56/9/21
f 56/9/22 26/10/22 55/38/22
f 55/38/23 28/12/23 54/39/23
f 54/39/24 31/14/24 53/15/24
f 53/15/25 33/16/25 52/17/25
f 33/16/26 67/18/26 52/17/26
f 35/19/27 68/20/27 67/18/27
f 37/21/28 69/22/28 68/20/28
f 40/23/29 70/24/29 69/22/29
f 42/25/30 71/26/30 70/24/30
f 43/27/31 72/28/31 71/26/31
f 45/29/32 73/40/32 72/28/32
f 48/31/33 51/32/33 73/40/33
f 13/41/34 50/42/34 49/42/34
f 1/43/35 11/44/35 60/45/35
f 2/46/36 60/45/36 61/47/36
f 3/48/37 61/47/37 62/49/37
f 4/50/38 62/49/38 63/51/38
f 5/52/39 63/51/39 64/53/39
f 6/54/40 64/53/40 65/55/40
f 7/56/41 65/55/41 66/57/41
f 9/58/42 66/57/42 52/59/42
f 67/60/43 9/58/43 52/59/43
f 68/61/44 12/62/44 67/60/44
f 69/63/45 14/64/45 68/61/45
f 70/65/46 18/66/46 69/63/46
f 71/67/47 21/68/47 70/65/47
f 72/69/48 24/70/48 71/67/48
f 73/71/49 27/72/49 72/69/49
f 51/73/50 30/74/50 73/71/50
f 30/75/51 51/76/51 8/77/51
f 74/78/54 51/76/54 49/42/54
f 59/2/19 13/1/19 17/4/19
f 58/36/20 17/4/20 20/6/20
f 57/37/21 20/6/21 23/8/21
f 56/9/22 23/8/22 26/10/22
f 55/38/23 26/10/23 28/12/23
f 54/39/24 28/12/24 31/14/24
f 53/15/25 31/14/25 33/16/25
f 33/16/26 35/19/26 67/18/26
f 35/19/27 37/21/27 68/20/27
f 37/21/28 40/23/28 69/22/28
f 40/23/29 42/25/29 70/24/29
f 42/25/30 43/27/30 71/26/30
f 43/27/31 45/29/31 72/28/31
f 45/29/32 48/31/32 73/40/32
f 49/42/34 51/89/34 48/94/34
f 48/94/34 45/95/34 49/42/34
f 45/95/34 43/96/34 49/42/34
f 43/96/34 42/97/34 49/42/34
f 42/97/34 40/98/34 49/42/34
f 40/98/34 37/99/34 49/42/34
f 37/99/34 35/100/34 49/42/34
f 35/100/34 33/101/34 49/42/34
f 33/101/34 31/102/34 49/42/34
f 31/102/34 28/103/34 49/42/34
f 28/103/34 26/104/34 49/42/34
f 26/104/34 23/105/34 49/42/34
f 23/105/34 20/106/34 49/42/34
f 20/106/34 17/107/34 49/42/34
f 17/107/34 13/41/34 49/42/34
f 2/46/36 1/43/36 60/45/36
f 3/48/37 2/46/37 61/47/37
f 4/50/38 3/48/38 62/49/38
f 5/52/39 4/50/39 63/51/39
f 6/54/40 5/52/40 64/53/40
f 7/56/41 6/54/41 65/55/41
f 9/58/42 7/56/42 66/57/42
f 67/60/43 12/62/43 9/58/43
f 68/61/44 14/64/44 12/62/44
f 69/63/45 18/66/45 14/64/45
f 70/65/46 21/68/46 18/66/46
f 71/67/47 24/70/47 21/68/47
f 72/69/48 27/72/48 24/70/48
f 73/71/49 30/74/49 27/72/49
f 11/77/51 1/108/51 8/77/51
f 1/108/51 2/109/51 8/77/51
f 2/109/51 3/110/51 8/77/51
f 3/110/51 4/111/51 8/77/51
f 4/111/51 5/112/51 8/77/51
f 5/112/51 6/113/51 8/77/51
f 6/113/51 7/114/51 8/77/51
f 7/114/51 9/115/51 8/77/51
f 9/115/51 12/116/51 8/77/51
f 12/116/51 14/117/51 8/77/51
f 14/117/51 18/118/51 8/77/51
f 18/118/51 21/119/51 8/77/51
f 21/119/51 24/120/51 8/77/51
f 24/120/51 27/121/51 8/77/51
f 27/121/51 30/75/51 8/77/51
f 74/78/54 8/77/54 51/76/54
