# Blender 4.0.2
# www.blender.org
mtllib RoundPanelCorner.mtl
o RoundPanelCorner
v 0.500000 0.500000 -0.499999
v 0.304910 0.480785 -0.499999
v 0.308658 0.480785 -0.461939
v 0.319760 0.480785 -0.425341
v 0.337788 0.480785 -0.391613
v 0.362051 0.480785 -0.362050
v 0.391614 0.480785 -0.337788
v 0.425342 0.480785 -0.319759
v 0.461940 0.480785 -0.308658
v 0.500000 0.480785 -0.304909
v 0.117317 0.423879 -0.499999
v 0.124670 0.423879 -0.425341
v 0.146447 0.423879 -0.353553
v 0.181811 0.423879 -0.287392
v 0.229402 0.423879 -0.229401
v 0.287393 0.423879 -0.181810
v 0.353554 0.423879 -0.146446
v 0.425343 0.423879 -0.124669
v 0.500001 0.423879 -0.117316
v -0.055570 0.331470 -0.499999
v -0.044895 0.331470 -0.391613
v -0.013280 0.331470 -0.287391
v 0.038061 0.331470 -0.191341
v 0.107153 0.331470 -0.107152
v 0.191342 0.331470 -0.038059
v 0.287393 0.331470 0.013281
v 0.391614 0.331470 0.044896
v 0.500001 0.331470 0.055571
v -0.207107 0.207107 -0.499999
v -0.193520 0.207107 -0.362049
v -0.153281 0.207107 -0.229401
v -0.087937 0.207107 -0.107151
v 0.000001 0.207107 0.000001
v 0.107153 0.207107 0.087939
v 0.229403 0.207107 0.153282
v 0.362051 0.207107 0.193521
v 0.500001 0.207107 0.207107
v -0.331470 0.055570 -0.499999
v -0.315493 0.055570 -0.337787
v -0.268177 0.055570 -0.181809
v -0.191341 0.055570 -0.038059
v -0.087937 0.055570 0.087939
v 0.038061 0.055570 0.191343
v 0.181811 0.055570 0.268179
v 0.337789 0.055570 0.315494
v 0.500001 0.055570 0.331470
v -0.423880 -0.117317 -0.499999
v -0.406127 -0.117317 -0.319759
v -0.353553 -0.117317 -0.146445
v -0.268177 -0.117317 0.013281
v -0.153281 -0.117317 0.153283
v -0.013279 -0.117317 0.268179
v 0.146448 -0.117317 0.353554
v 0.319761 -0.117317 0.406128
v 0.500001 -0.117317 0.423880
v -0.480785 -0.304910 -0.499999
v -0.461940 -0.304910 -0.308657
v -0.406127 -0.304910 -0.124668
v -0.315493 -0.304910 0.044897
v -0.193519 -0.304910 0.193521
v -0.044894 -0.304910 0.315494
v 0.124671 -0.304910 0.406129
v 0.308660 -0.304910 0.461941
v 0.500001 -0.304910 0.480786
v -0.500000 -0.500000 -0.499999
v -0.480785 -0.500000 -0.304908
v -0.423879 -0.500000 -0.117315
v -0.331469 -0.500000 0.055572
v -0.207106 -0.500000 0.207108
v -0.055569 -0.500000 0.331471
v 0.117318 -0.500000 0.423881
v 0.304911 -0.500000 0.480786
v 0.500001 -0.500000 0.500001
v 0.500000 0.500000 -0.500000
v 0.117316 0.423879 -0.500000
v 0.500000 0.423880 -0.117317
v -0.055571 0.331470 -0.500000
v 0.500000 0.055570 0.331470
v -0.480786 -0.304910 -0.500000
v -0.480786 -0.500000 -0.304909
v -0.331470 -0.500000 0.055571
v -0.207107 -0.500000 0.207107
v -0.055570 -0.500000 0.331470
v 0.117317 -0.500000 0.423880
v 0.304910 -0.500000 0.480785
v 0.304909 0.480785 -0.500000
v 0.316578 0.441418 -0.463515
v 0.327221 0.441418 -0.428433
v 0.344503 0.441418 -0.396100
v 0.367760 0.441418 -0.367761
v 0.396100 0.441418 -0.344503
v 0.428432 0.441418 -0.327221
v 0.463515 0.441418 -0.316579
v 0.500000 0.480785 -0.304910
v 0.139967 0.386812 -0.428385
v 0.160857 0.386812 -0.359522
v 0.194779 0.386812 -0.296058
v 0.240431 0.386812 -0.240431
v 0.296058 0.386812 -0.194779
v 0.359522 0.386812 -0.160857
v 0.428385 0.386812 -0.139968
v -0.022798 0.298114 -0.396009
v 0.007536 0.298114 -0.296014
v 0.056794 0.298114 -0.203859
v 0.123084 0.298114 -0.123084
v 0.203859 0.298114 -0.056794
v 0.296015 0.298114 -0.007536
v 0.396009 0.298114 0.022797
v 0.500000 0.331470 0.055570
v -0.207107 0.207107 -0.500000
v -0.165457 0.178736 -0.367632
v -0.126847 0.178736 -0.240351
v -0.064148 0.178736 -0.123049
v 0.020232 0.178736 -0.020232
v 0.123049 0.178736 0.064147
v 0.240352 0.178736 0.126847
v 0.367633 0.178736 0.165457
v 0.500000 0.207107 0.207107
v -0.331470 0.055570 -0.500000
v -0.282530 0.033275 -0.344345
v -0.237127 0.033275 -0.194672
v -0.163397 0.033275 -0.056732
v -0.064173 0.033275 0.064173
v 0.056732 0.033275 0.163397
v 0.194672 0.033275 0.237127
v 0.344345 0.033275 0.282530
v -0.423880 -0.117317 -0.500000
v -0.369520 -0.132677 -0.327042
v -0.319069 -0.132677 -0.160730
v -0.237143 -0.132677 -0.007457
v -0.126888 -0.132677 0.126889
v 0.007457 -0.132677 0.237143
v 0.160731 -0.132677 0.319069
v 0.327042 -0.132677 0.369519
v 0.500000 -0.117317 0.423880
v -0.423087 -0.312742 -0.316386
v -0.369528 -0.312742 -0.139829
v -0.282555 -0.312742 0.022887
v -0.165508 -0.312742 0.165509
v -0.022886 -0.312742 0.282555
v 0.139830 -0.312742 0.369528
v 0.316387 -0.312742 0.423086
v 0.500000 -0.304910 0.480785
v -0.500001 -0.500000 -0.500000
v -0.423880 -0.500000 -0.117316
v 0.500001 -0.500000 0.500000
v 0.500001 0.460141 -0.500000
v 0.312980 0.441440 -0.500000
v 0.132886 0.386878 -0.500000
v -0.033117 0.298229 -0.500000
v -0.178647 0.178887 -0.500000
v -0.298100 0.033433 -0.500000
v -0.386874 -0.132546 -0.500000
v -0.441544 -0.312668 -0.500000
v -0.460383 -0.500000 -0.500000
v -0.441556 -0.500000 -0.312713
v -0.386926 -0.500000 -0.132623
v -0.298213 -0.500000 0.033349
v -0.178824 -0.500000 0.178824
v -0.033348 -0.500000 0.298213
v 0.132623 -0.500000 0.386926
v 0.312713 -0.500000 0.441556
v 0.500001 -0.500000 0.460382
v 0.500001 -0.312668 0.441544
v 0.500001 -0.132546 0.386873
v 0.500001 0.033433 0.298099
v 0.500001 0.178887 0.178646
v 0.500001 0.298229 0.033117
v 0.500001 0.386878 -0.132887
v 0.500001 0.441440 -0.312981
vn -0.0980 0.9951 0.0097
vn -0.0942 0.9951 0.0286
vn -0.0869 0.9951 0.0464
vn -0.0761 0.9951 0.0625
vn -0.0625 0.9951 0.0761
vn -0.0464 0.9951 0.0869
vn -0.0286 0.9951 0.0942
vn -0.0097 0.9951 0.0980
vn -0.2902 0.9565 0.0286
vn -0.2790 0.9565 0.0846
vn -0.2571 0.9565 0.1374
vn -0.2254 0.9565 0.1850
vn -0.1850 0.9565 0.2254
vn -0.1374 0.9565 0.2571
vn -0.0846 0.9565 0.2790
vn -0.0286 0.9565 0.2902
vn -0.4709 0.8810 0.0464
vn -0.4528 0.8810 0.1374
vn -0.4173 0.8810 0.2231
vn -0.3658 0.8810 0.3002
vn -0.3002 0.8810 0.3658
vn -0.2230 0.8810 0.4173
vn -0.1374 0.8810 0.4528
vn -0.0464 0.8810 0.4709
vn -0.6332 0.7715 0.0624
vn -0.6088 0.7715 0.1847
vn -0.5611 0.7715 0.2999
vn -0.4918 0.7715 0.4036
vn -0.4036 0.7715 0.4918
vn -0.2999 0.7715 0.5611
vn -0.1847 0.7715 0.6088
vn -0.0624 0.7715 0.6332
vn -0.7708 0.6326 0.0759
vn -0.7412 0.6326 0.2248
vn -0.6831 0.6326 0.3651
vn -0.5987 0.6326 0.4913
vn -0.4913 0.6326 0.5987
vn -0.3651 0.6326 0.6831
vn -0.2248 0.6326 0.7412
vn -0.0759 0.6326 0.7708
vn -0.8786 0.4696 0.0865
vn -0.8448 0.4696 0.2563
vn -0.7786 0.4696 0.4162
vn -0.6825 0.4696 0.5601
vn -0.5601 0.4696 0.6825
vn -0.4162 0.4696 0.7786
vn -0.2563 0.4696 0.8448
vn -0.0865 0.4696 0.8786
vn -0.9527 0.2890 0.0938
vn -0.9161 0.2890 0.2779
vn -0.8443 0.2890 0.4513
vn -0.7400 0.2890 0.6073
vn -0.6073 0.2890 0.7400
vn -0.4513 0.2890 0.8443
vn -0.2779 0.2890 0.9161
vn -0.0938 0.2890 0.9527
vn -0.9904 0.0975 0.0976
vn -0.9524 0.0975 0.2889
vn -0.8777 0.0975 0.4691
vn -0.7693 0.0975 0.6314
vn -0.6314 0.0976 0.7693
vn -0.4691 0.0976 0.8777
vn -0.2889 0.0975 0.9524
vn -0.0975 0.0975 0.9904
vn 0.0995 -0.9950 -0.0104
vn 0.0958 -0.9950 -0.0291
vn 0.0883 -0.9950 -0.0472
vn 0.0774 -0.9950 -0.0635
vn 0.0635 -0.9950 -0.0774
vn 0.0472 -0.9950 -0.0883
vn 0.0291 -0.9950 -0.0958
vn 0.0104 -0.9950 -0.0995
vn 0.2900 -0.9566 -0.0292
vn 0.2789 -0.9566 -0.0846
vn 0.2571 -0.9566 -0.1374
vn 0.2253 -0.9566 -0.1849
vn 0.1849 -0.9566 -0.2253
vn 0.1374 -0.9566 -0.2571
vn 0.0846 -0.9566 -0.2789
vn 0.0295 -0.9566 -0.2898
vn 0.4707 -0.8810 -0.0474
vn 0.4528 -0.8810 -0.1373
vn 0.4173 -0.8810 -0.2230
vn 0.3657 -0.8810 -0.3002
vn 0.3002 -0.8810 -0.3657
vn 0.2230 -0.8810 -0.4173
vn 0.1373 -0.8810 -0.4528
vn 0.0477 -0.8811 -0.4705
vn 0.6330 -0.7716 -0.0637
vn 0.6088 -0.7715 -0.1847
vn 0.5611 -0.7715 -0.2999
vn 0.4918 -0.7715 -0.4036
vn 0.4036 -0.7715 -0.4918
vn 0.2999 -0.7715 -0.5611
vn 0.1847 -0.7715 -0.6088
vn 0.0639 -0.7717 -0.6328
vn 0.7706 -0.6326 -0.0775
vn 0.7412 -0.6325 -0.2248
vn 0.6831 -0.6325 -0.3651
vn 0.5987 -0.6325 -0.4914
vn 0.4914 -0.6325 -0.5987
vn 0.3651 -0.6325 -0.6831
vn 0.2248 -0.6325 -0.7412
vn 0.0777 -0.6327 -0.7705
vn 0.8784 -0.4697 -0.0883
vn 0.8449 -0.4696 -0.2563
vn 0.7786 -0.4696 -0.4162
vn 0.6825 -0.4696 -0.5601
vn 0.5601 -0.4696 -0.6825
vn 0.4162 -0.4696 -0.7786
vn 0.2563 -0.4696 -0.8449
vn 0.0885 -0.4698 -0.8783
vn 0.9525 -0.2890 -0.0958
vn 0.9161 -0.2890 -0.2779
vn 0.8443 -0.2890 -0.4513
vn 0.7400 -0.2890 -0.6073
vn 0.6073 -0.2890 -0.7400
vn 0.4513 -0.2890 -0.8443
vn 0.2779 -0.2890 -0.9161
vn 0.0959 -0.2891 -0.9525
vn 0.9900 -0.0996 -0.0996
vn 0.9522 -0.0996 -0.2888
vn 0.8775 -0.0996 -0.4691
vn 0.7692 -0.0996 -0.6312
vn 0.6312 -0.0996 -0.7692
vn 0.4691 -0.0996 -0.8775
vn 0.2888 -0.0996 -0.9522
vn 0.0995 -0.0996 -0.9900
vn -0.0000 -0.0000 -1.0000
vn -0.0000 -1.0000 -0.0000
vn 1.0000 -0.0000 -0.0000
vn -0.4173 0.8810 0.2230
vn -0.6314 0.0975 0.7693
vn 0.2898 -0.9566 -0.0295
vn 0.0292 -0.9566 -0.2900
vn 0.4705 -0.8811 -0.0477
vn 0.0474 -0.8810 -0.4707
vn 0.6328 -0.7717 -0.0639
vn 0.0637 -0.7716 -0.6330
vn 0.7705 -0.6327 -0.0777
vn 0.0775 -0.6326 -0.7706
vn 0.8783 -0.4698 -0.0885
vn 0.0883 -0.4697 -0.8784
vn 0.9525 -0.2891 -0.0959
vn 0.0958 -0.2890 -0.9525
vn 0.9900 -0.0996 -0.0995
vn 0.0996 -0.0996 -0.9900
vt 0.272842 0.966296
vt 0.238699 0.833402
vt 0.252109 0.835636
vt 0.270495 0.838460
vt 0.288530 0.841390
vt 0.306270 0.845230
vt 0.323549 0.850049
vt 0.340237 0.855724
vt 0.356659 0.861736
vt 0.373983 0.865328
vt 0.207960 0.717389
vt 0.239727 0.714423
vt 0.271984 0.717319
vt 0.304966 0.722417
vt 0.338032 0.729672
vt 0.370313 0.738895
vt 0.400932 0.749755
vt 0.429070 0.761973
vt 0.456794 0.783275
vt 0.175680 0.595992
vt 0.225748 0.595597
vt 0.272481 0.598916
vt 0.320720 0.606463
vt 0.369493 0.617399
vt 0.417450 0.631252
vt 0.463227 0.647834
vt 0.505694 0.667342
vt 0.548662 0.690419
vt 0.210290 0.478158
vt 0.143584 0.478290
vt 0.270872 0.483790
vt 0.334386 0.494705
vt 0.399016 0.509572
vt 0.462709 0.527647
vt 0.523442 0.548801
vt 0.579557 0.573270
vt 0.633806 0.604432
vt 0.190266 0.363345
vt 0.109906 0.351972
vt 0.266600 0.373090
vt 0.346013 0.388558
vt 0.427382 0.405549
vt 0.506021 0.429191
vt 0.582035 0.453623
vt 0.652149 0.481153
vt 0.721202 0.516752
vt 0.078171 0.235005
vt 0.171256 0.252135
vt 0.262813 0.268084
vt 0.357177 0.289241
vt 0.452438 0.312133
vt 0.546959 0.336580
vt 0.638783 0.363601
vt 0.725262 0.393635
vt 0.807733 0.430841
vt 0.153713 0.145595
vt 0.047004 0.121841
vt 0.262027 0.169631
vt 0.369322 0.196978
vt 0.475919 0.222688
vt 0.583994 0.249264
vt 0.691246 0.278752
vt 0.794342 0.309563
vt 0.891335 0.346366
vt 0.015636 0.014926
vt 0.139926 0.048128
vt 0.270089 0.083427
vt 0.388335 0.115147
vt 0.497168 0.144280
vt 0.615510 0.176531
vt 0.728767 0.207603
vt 0.849151 0.240321
vt 0.966686 0.272949
vt 0.054645 0.463675
vt 0.068079 0.528154
vt 0.054645 0.528154
vt 0.068079 0.593103
vt 0.054645 0.593103
vt 0.068079 0.658055
vt 0.054645 0.658055
vt 0.068079 0.723008
vt 0.054645 0.723008
vt 0.068079 0.787964
vt 0.054645 0.787964
vt 0.068079 0.852921
vt 0.054645 0.852921
vt 0.068079 0.917884
vt 0.054645 0.917884
vt 0.068079 0.984159
vt 0.054645 0.984159
vt 0.087406 0.989564
vt 0.100800 0.925927
vt 0.100800 0.989564
vt 0.087406 0.925927
vt 0.100800 0.860978
vt 0.087406 0.860978
vt 0.100800 0.796028
vt 0.087406 0.796028
vt 0.100800 0.731079
vt 0.087406 0.731079
vt 0.100800 0.666129
vt 0.087406 0.601180
vt 0.100800 0.601180
vt 0.100800 0.536230
vt 0.087406 0.470834
vt 0.100800 0.470834
vt 0.024840 0.976049
vt 0.038274 0.912397
vt 0.038274 0.976049
vt 0.024840 0.912397
vt 0.038274 0.847440
vt 0.024840 0.847440
vt 0.038274 0.782484
vt 0.024840 0.782484
vt 0.038274 0.717531
vt 0.024840 0.717531
vt 0.038274 0.652579
vt 0.024840 0.652579
vt 0.038274 0.587630
vt 0.024840 0.587630
vt 0.038274 0.522683
vt 0.024840 0.522683
vt 0.038274 0.457319
vt 0.015636 0.014926
vt 0.068079 0.463675
vt 0.087406 0.666129
vt 0.087406 0.536230
vt 0.024840 0.457319
s 0
usemtl 
f 1/1/1 2/2/1 3/3/1
f 1/1/2 3/3/2 4/4/2
f 1/1/3 4/4/3 5/5/3
f 1/1/4 5/5/4 6/6/4
f 1/1/5 6/6/5 7/7/5
f 1/1/6 7/7/6 8/8/6
f 1/1/7 8/8/7 9/9/7
f 1/1/8 9/9/8 10/10/8
f 3/3/9 11/11/9 12/12/9
f 4/4/10 12/12/10 13/13/10
f 5/5/11 13/13/11 14/14/11
f 6/6/12 14/14/12 15/15/12
f 7/7/13 15/15/13 16/16/13
f 17/17/14 7/7/14 16/16/14
f 9/9/15 17/17/15 18/18/15
f 10/10/16 18/18/16 19/19/16
f 12/12/17 20/20/17 21/21/17
f 22/22/18 12/12/18 21/21/18
f 14/14/19 22/22/19 23/23/19
f 15/15/20 23/23/20 24/24/20
f 16/16/21 24/24/21 25/25/21
f 26/26/22 16/16/22 25/25/22
f 27/27/23 17/17/23 26/26/23
f 19/19/24 27/27/24 28/28/24
f 30/29/25 20/20/25 29/30/25
f 31/31/26 21/21/26 30/29/26
f 23/23/27 31/31/27 32/32/27
f 33/33/28 23/23/28 32/32/28
f 25/25/29 33/33/29 34/34/29
f 35/35/30 25/25/30 34/34/30
f 36/36/31 26/26/31 35/35/31
f 28/28/32 36/36/32 37/37/32
f 39/38/33 29/30/33 38/39/33
f 40/40/34 30/29/34 39/38/34
f 32/32/35 40/40/35 41/41/35
f 33/33/36 41/41/36 42/42/36
f 34/34/37 42/42/37 43/43/37
f 35/35/38 43/43/38 44/44/38
f 45/45/39 35/35/39 44/44/39
f 37/37/40 45/45/40 46/46/40
f 39/38/41 47/47/41 48/48/41
f 40/40/42 48/48/42 49/49/42
f 41/41/43 49/49/43 50/50/43
f 51/51/44 41/41/44 50/50/44
f 43/43/45 51/51/45 52/52/45
f 53/53/46 43/43/46 52/52/46
f 54/54/47 44/44/47 53/53/47
f 46/46/48 54/54/48 55/55/48
f 57/56/49 47/47/49 56/57/49
f 49/49/50 57/56/50 58/58/50
f 50/50/51 58/58/51 59/59/51
f 51/51/52 59/59/52 60/60/52
f 52/52/53 60/60/53 61/61/53
f 62/62/54 52/52/54 61/61/54
f 63/63/55 53/53/55 62/62/55
f 55/55/56 63/63/56 64/64/56
f 57/56/57 65/65/57 66/66/57
f 58/58/58 66/66/58 67/67/58
f 59/59/59 67/67/59 68/68/59
f 69/69/60 59/59/60 68/68/60
f 61/61/61 69/69/61 70/70/61
f 71/71/62 61/61/62 70/70/62
f 72/72/63 62/62/63 71/71/63
f 64/64/64 72/72/64 73/73/64
f 147/1/65 87/3/65 148/2/65
f 147/1/66 88/4/66 87/3/66
f 147/1/67 89/5/67 88/4/67
f 147/1/68 90/6/68 89/5/68
f 147/1/69 91/7/69 90/6/69
f 147/1/70 92/8/70 91/7/70
f 147/1/71 93/9/71 92/8/71
f 147/1/72 170/10/72 93/9/72
f 95/12/73 148/2/73 87/3/73
f 95/12/74 88/4/74 96/13/74
f 96/13/75 89/5/75 97/14/75
f 97/14/76 90/6/76 98/15/76
f 99/16/77 90/6/77 91/7/77
f 99/16/78 92/8/78 100/17/78
f 101/18/79 92/8/79 93/9/79
f 101/18/80 170/10/80 169/19/80
f 102/21/81 149/11/81 95/12/81
f 103/22/82 95/12/82 96/13/82
f 103/22/83 97/14/83 104/23/83
f 104/23/84 98/15/84 105/24/84
f 106/25/85 98/15/85 99/16/85
f 106/25/86 100/17/86 107/26/86
f 108/27/87 100/17/87 101/18/87
f 108/27/88 169/19/88 168/28/88
f 111/29/89 150/20/89 102/21/89
f 112/31/90 102/21/90 103/22/90
f 112/31/91 104/23/91 113/32/91
f 113/32/92 105/24/92 114/33/92
f 115/34/93 105/24/93 106/25/93
f 115/34/94 107/26/94 116/35/94
f 116/35/95 108/27/95 117/36/95
f 117/36/96 168/28/96 167/37/96
f 120/38/97 151/30/97 111/29/97
f 121/40/98 111/29/98 112/31/98
f 121/40/99 113/32/99 122/41/99
f 122/41/100 114/33/100 123/42/100
f 124/43/101 114/33/101 115/34/101
f 124/43/102 116/35/102 125/44/102
f 126/45/103 116/35/103 117/36/103
f 126/45/104 167/37/104 166/46/104
f 128/48/105 152/39/105 120/38/105
f 129/49/106 120/38/106 121/40/106
f 129/49/107 122/41/107 130/50/107
f 130/50/108 123/42/108 131/51/108
f 131/51/109 124/43/109 132/52/109
f 133/53/110 124/43/110 125/44/110
f 134/54/111 125/44/111 126/45/111
f 134/54/112 166/46/112 165/55/112
f 136/56/113 153/47/113 128/48/113
f 137/58/114 128/48/114 129/49/114
f 137/58/115 130/50/115 138/59/115
f 139/60/116 130/50/116 131/51/116
f 140/61/117 131/51/117 132/52/117
f 140/61/118 133/53/118 141/62/118
f 141/62/119 134/54/119 142/63/119
f 142/63/120 165/55/120 164/64/120
f 156/66/121 154/57/121 136/56/121
f 156/66/122 137/58/122 157/67/122
f 157/67/123 138/59/123 158/68/123
f 158/68/124 139/60/124 159/69/124
f 159/69/125 140/61/125 160/70/125
f 161/71/126 140/61/126 141/62/126
f 162/72/127 141/62/127 142/63/127
f 162/72/128 164/64/128 163/73/128
f 74/74/129 148/75/129 86/76/129
f 86/76/129 149/77/129 75/78/129
f 75/78/129 150/79/129 77/80/129
f 77/80/129 151/81/129 110/82/129
f 110/82/129 152/83/129 119/84/129
f 119/84/129 153/85/129 127/86/129
f 127/86/129 154/87/129 79/88/129
f 79/88/129 155/89/129 144/90/129
f 155/91/130 80/92/130 144/93/130
f 156/94/130 145/95/130 80/92/130
f 157/96/130 81/97/130 145/95/130
f 158/98/130 82/99/130 81/97/130
f 159/100/130 83/101/130 82/99/130
f 83/101/130 161/102/130 84/103/130
f 161/102/130 85/104/130 84/103/130
f 85/104/130 163/105/130 146/106/130
f 163/107/131 143/108/131 146/109/131
f 164/110/131 135/111/131 143/108/131
f 165/112/131 78/113/131 135/111/131
f 166/114/131 118/115/131 78/113/131
f 167/116/131 109/117/131 118/115/131
f 168/118/131 76/119/131 109/117/131
f 169/120/131 94/121/131 76/119/131
f 170/122/131 74/123/131 94/121/131
f 3/3/9 2/2/9 11/11/9
f 4/4/10 3/3/10 12/12/10
f 5/5/11 4/4/11 13/13/11
f 6/6/12 5/5/12 14/14/12
f 7/7/13 6/6/13 15/15/13
f 17/17/14 8/8/14 7/7/14
f 9/9/15 8/8/15 17/17/15
f 10/10/16 9/9/16 18/18/16
f 12/12/17 11/11/17 20/20/17
f 22/22/18 13/13/18 12/12/18
f 14/14/132 13/13/132 22/22/132
f 15/15/20 14/14/20 23/23/20
f 16/16/21 15/15/21 24/24/21
f 26/26/22 17/17/22 16/16/22
f 27/27/23 18/18/23 17/17/23
f 19/19/24 18/18/24 27/27/24
f 30/29/25 21/21/25 20/20/25
f 31/31/26 22/22/26 21/21/26
f 23/23/27 22/22/27 31/31/27
f 33/33/28 24/24/28 23/23/28
f 25/25/29 24/24/29 33/33/29
f 35/35/30 26/26/30 25/25/30
f 36/36/31 27/27/31 26/26/31
f 28/28/32 27/27/32 36/36/32
f 39/38/33 30/29/33 29/30/33
f 40/40/34 31/31/34 30/29/34
f 32/32/35 31/31/35 40/40/35
f 33/33/36 32/32/36 41/41/36
f 34/34/37 33/33/37 42/42/37
f 35/35/38 34/34/38 43/43/38
f 45/45/39 36/36/39 35/35/39
f 37/37/40 36/36/40 45/45/40
f 39/38/41 38/39/41 47/47/41
f 40/40/42 39/38/42 48/48/42
f 41/41/43 40/40/43 49/49/43
f 51/51/44 42/42/44 41/41/44
f 43/43/45 42/42/45 51/51/45
f 53/53/46 44/44/46 43/43/46
f 54/54/47 45/45/47 44/44/47
f 46/46/48 45/45/48 54/54/48
f 57/56/49 48/48/49 47/47/49
f 49/49/50 48/48/50 57/56/50
f 50/50/51 49/49/51 58/58/51
f 51/51/52 50/50/52 59/59/52
f 52/52/53 51/51/53 60/60/53
f 62/62/54 53/53/54 52/52/54
f 63/63/55 54/54/55 53/53/55
f 55/55/56 54/54/56 63/63/56
f 57/56/57 56/57/57 65/65/57
f 58/58/58 57/56/58 66/66/58
f 59/59/59 58/58/59 67/67/59
f 69/69/60 60/60/60 59/59/60
f 61/61/133 60/60/133 69/69/133
f 71/71/62 62/62/62 61/61/62
f 72/72/63 63/63/63 62/62/63
f 64/64/64 63/63/64 72/72/64
f 95/12/134 149/11/134 148/2/134
f 95/12/74 87/3/74 88/4/74
f 96/13/75 88/4/75 89/5/75
f 97/14/76 89/5/76 90/6/76
f 99/16/77 98/15/77 90/6/77
f 99/16/78 91/7/78 92/8/78
f 101/18/79 100/17/79 92/8/79
f 101/18/135 93/9/135 170/10/135
f 102/21/136 150/20/136 149/11/136
f 103/22/82 102/21/82 95/12/82
f 103/22/83 96/13/83 97/14/83
f 104/23/84 97/14/84 98/15/84
f 106/25/85 105/24/85 98/15/85
f 106/25/86 99/16/86 100/17/86
f 108/27/87 107/26/87 100/17/87
f 108/27/137 101/18/137 169/19/137
f 111/29/138 151/30/138 150/20/138
f 112/31/90 111/29/90 102/21/90
f 112/31/91 103/22/91 104/23/91
f 113/32/92 104/23/92 105/24/92
f 115/34/93 114/33/93 105/24/93
f 115/34/94 106/25/94 107/26/94
f 116/35/95 107/26/95 108/27/95
f 117/36/139 108/27/139 168/28/139
f 120/38/140 152/39/140 151/30/140
f 121/40/98 120/38/98 111/29/98
f 121/40/99 112/31/99 113/32/99
f 122/41/100 113/32/100 114/33/100
f 124/43/101 123/42/101 114/33/101
f 124/43/102 115/34/102 116/35/102
f 126/45/103 125/44/103 116/35/103
f 126/45/141 117/36/141 167/37/141
f 128/48/142 153/47/142 152/39/142
f 129/49/106 128/48/106 120/38/106
f 129/49/107 121/40/107 122/41/107
f 130/50/108 122/41/108 123/42/108
f 131/51/109 123/42/109 124/43/109
f 133/53/110 132/52/110 124/43/110
f 134/54/111 133/53/111 125/44/111
f 134/54/143 126/45/143 166/46/143
f 136/56/144 154/57/144 153/47/144
f 137/58/114 136/56/114 128/48/114
f 137/58/115 129/49/115 130/50/115
f 139/60/116 138/59/116 130/50/116
f 140/61/117 139/60/117 131/51/117
f 140/61/118 132/52/118 133/53/118
f 141/62/119 133/53/119 134/54/119
f 142/63/145 134/54/145 165/55/145
f 156/66/146 155/124/146 154/57/146
f 156/66/122 136/56/122 137/58/122
f 157/67/123 137/58/123 138/59/123
f 158/68/124 138/59/124 139/60/124
f 159/69/125 139/60/125 140/61/125
f 161/71/126 160/70/126 140/61/126
f 162/72/127 161/71/127 141/62/127
f 162/72/147 142/63/147 164/64/147
f 74/74/129 147/125/129 148/75/129
f 86/76/129 148/75/129 149/77/129
f 75/78/129 149/77/129 150/79/129
f 77/80/129 150/79/129 151/81/129
f 110/82/129 151/81/129 152/83/129
f 119/84/129 152/83/129 153/85/129
f 127/86/129 153/85/129 154/87/129
f 79/88/129 154/87/129 155/89/129
f 155/91/130 156/94/130 80/92/130
f 156/94/130 157/96/130 145/95/130
f 157/96/130 158/98/130 81/97/130
f 158/98/130 159/100/130 82/99/130
f 159/100/130 160/126/130 83/101/130
f 83/101/130 160/126/130 161/102/130
f 161/102/130 162/127/130 85/104/130
f 85/104/130 162/127/130 163/105/130
f 163/107/131 164/110/131 143/108/131
f 164/110/131 165/112/131 135/111/131
f 165/112/131 166/114/131 78/113/131
f 166/114/131 167/116/131 118/115/131
f 167/116/131 168/118/131 109/117/131
f 168/118/131 169/120/131 76/119/131
f 169/120/131 170/122/131 94/121/131
f 170/122/131 147/128/131 74/123/131
