# Blender 4.0.2
# www.blender.org
mtllib RoundPanelInvertedCorner.mtl
o RoundPanelInvertedCorner
v -0.207107 0.207107 0.500000
v -0.177992 0.177988 0.478697
v -0.177992 0.177988 0.500000
v -0.207107 0.500000 0.207106
v -0.177991 0.457640 0.177988
v -0.177991 0.500000 0.177988
v -0.055570 0.331469 0.500000
v 0.117317 0.423879 0.500000
v 0.308045 0.480785 0.500000
v 0.133099 0.385772 0.478843
v -0.032674 0.297199 0.478843
v 0.312959 0.440310 0.500000
v 0.133099 0.385772 0.500000
v -0.032674 0.297199 0.500000
v -0.055570 0.500000 0.331469
v 0.117317 0.500000 0.423879
v 0.500000 0.500000 0.500000
v 0.500000 0.457640 0.500000
v 0.313205 0.457640 0.440310
v 0.133099 0.457640 0.385772
v -0.032674 0.457640 0.297200
v 0.312714 0.500000 0.440310
v 0.133099 0.500000 0.385772
v -0.032674 0.500000 0.297200
v 0.306382 0.500000 0.478552
v 0.312959 0.440310 0.478811
v 0.500000 0.500000 0.458131
v 0.500000 0.457640 0.458131
v -0.500000 0.207107 0.207107
v -0.478843 0.177990 0.177990
v -0.500000 0.177990 0.177990
v -0.500000 0.331470 0.055570
v -0.500000 0.423879 -0.117317
v -0.500000 0.480785 -0.308045
v -0.478843 0.385772 -0.133099
v -0.478843 0.297199 0.032674
v -0.500000 0.440310 -0.312959
v -0.500000 0.385772 -0.133099
v -0.500000 0.297199 0.032674
v -0.331470 0.500000 0.055570
v -0.423880 0.500000 -0.117317
v -0.500000 0.500000 -0.500000
v -0.500000 0.457640 -0.500000
v -0.440487 0.457640 -0.313172
v -0.385901 0.457640 -0.133049
v -0.297264 0.457640 0.032712
v -0.440487 0.500000 -0.312680
v -0.385901 0.500000 -0.133049
v -0.297264 0.500000 0.032712
v -0.478552 0.500000 -0.306382
v -0.478811 0.440310 -0.312959
v -0.464388 0.500000 -0.500000
v -0.464388 0.457640 -0.500000
v -0.500000 0.055570 0.331469
v -0.500000 -0.117317 0.423879
v -0.500000 -0.304910 0.480785
v -0.478843 -0.133099 0.385772
v -0.478843 0.032674 0.297199
v -0.500000 -0.312959 0.440310
v -0.500000 -0.133099 0.385772
v -0.500000 0.032674 0.297199
v -0.331470 0.055570 0.500000
v -0.423880 -0.117317 0.500000
v -0.500000 -0.500000 0.500000
v -0.500000 -0.500000 0.457640
v -0.440487 -0.313172 0.478551
v -0.385901 -0.133049 0.478551
v -0.297264 0.032713 0.478551
v -0.440487 -0.312680 0.500000
v -0.385901 -0.133049 0.500000
v -0.297264 0.032712 0.500000
v -0.480785 -0.304909 0.500000
v -0.478811 -0.312959 0.440310
v -0.455788 -0.500000 0.500000
v -0.455788 -0.500000 0.457640
vn -0.0000 -0.0000 1.0000
vn 0.3832 -0.9236 -0.0110
vn 0.5554 -0.8316 -0.0000
vn 0.3833 -0.9236 -0.0000
vn 0.5554 -0.8316 -0.0001
vn 0.7064 -0.7077 -0.0110
vn 0.7069 -0.7073 0.0001
vn -0.0000 1.0000 -0.0000
vn 0.3817 0.0032 -0.9243
vn 0.1967 -0.0198 -0.9803
vn 0.1927 0.0033 -0.9812
vn 0.5554 -0.0000 -0.8316
vn 0.3841 -0.0217 -0.9230
vn 0.3820 0.0015 -0.9242
vn 0.7069 -0.0000 -0.7073
vn 0.5573 -0.0216 -0.8301
vn 0.3827 -0.9238 0.0110
vn 0.1923 -0.9813 -0.0000
vn 0.3826 -0.9239 -0.0000
vn 0.0923 -0.9957 -0.0000
vn 0.1888 -0.9820 -0.0093
vn 1.0000 -0.0000 -0.0000
vn 0.0942 0.0010 -0.9956
vn 0.1903 0.0237 -0.9814
vn 0.1944 0.0011 -0.9809
vn -1.0000 -0.0000 -0.0000
vn -0.0000 -0.8316 -0.5554
vn 0.0109 -0.9233 -0.3838
vn -0.0000 -0.9239 -0.3826
vn -0.0000 -0.7071 -0.7071
vn 0.0110 -0.8312 -0.5559
vn 0.9771 -0.0148 -0.2122
vn 0.9239 0.0012 -0.3826
vn 0.9780 0.0032 -0.2087
vn 0.9228 -0.0200 -0.3847
vn 0.8315 -0.0000 -0.5555
vn 0.9238 -0.0000 -0.3829
vn 0.8300 -0.0216 -0.5573
vn 0.0113 -0.9812 -0.1929
vn -0.0000 -0.9816 -0.1907
vn -0.0000 -0.9958 -0.0917
vn -0.0178 -0.9818 -0.1891
vn -0.0000 -0.9813 -0.1923
vn -0.0000 -0.0000 -1.0000
vn 0.9782 0.0198 -0.2068
vn 0.9920 0.0014 -0.1261
vn 0.9776 0.0023 -0.2105
vn 0.0110 -0.3825 -0.9239
vn -0.0000 -0.5554 -0.8316
vn -0.0000 -0.3826 -0.9239
vn 0.0110 -0.5559 -0.8312
vn 0.9239 -0.3827 0.0043
vn 0.9818 -0.1896 -0.0069
vn 0.9831 -0.1828 0.0066
vn 0.8315 -0.5555 -0.0000
vn 0.9236 -0.3833 -0.0096
vn 0.9238 -0.3829 0.0015
vn 0.7069 -0.7073 -0.0001
vn 0.8312 -0.5559 -0.0111
vn 0.8315 -0.5555 0.0001
vn -0.0110 -0.3820 -0.9241
vn -0.0000 -0.1923 -0.9813
vn -0.0000 -0.3820 -0.9242
vn -0.0000 -0.0931 -0.9957
vn 0.0101 -0.1872 -0.9823
vn -0.0000 -1.0000 -0.0000
vn 0.9966 -0.0827 0.0020
vn 0.9833 -0.1802 0.0253
vn 0.9820 -0.1891 0.0019
vn -0.3535 0.6614 0.6614
vn -0.5019 0.6116 0.6116
vn -0.6116 0.6116 0.5019
vn -0.6116 0.5019 0.6116
vn -0.5774 0.5774 0.5774
vn -0.6614 0.6614 0.3535
vn -0.6614 0.3535 0.6614
vn 0.5642 -0.6384 -0.5237
vn 0.4877 -0.6393 -0.5945
vn 0.3335 -0.7066 -0.6241
vn 0.5636 -0.7286 -0.3893
vn 0.6611 -0.3535 -0.6618
vn 0.6116 -0.5015 -0.6119
vn 0.5627 -0.6054 -0.5630
vn 0.1820 -0.7783 -0.6010
vn 0.0391 -0.9113 -0.4099
vn 0.4112 -0.9100 -0.0526
vn 0.3959 -0.8788 -0.2664
vn 0.6901 -0.2091 -0.6928
vn 0.7062 0.0214 -0.7076
vn -0.6914 0.2097 0.6914
vn -0.7054 0.0695 0.7054
vn -0.0741 0.7399 0.6686
vn -0.2003 0.6928 0.6928
vn -0.6928 0.6928 0.2003
vn -0.6686 0.7399 0.0741
vn 0.5549 -0.8319 0.0110
vn 0.5559 -0.8312 0.0110
vn 0.7069 -0.7073 -0.0000
vn 0.3801 0.0213 -0.9247
vn 0.3823 -0.0017 -0.9241
vn 0.1948 -0.0002 -0.9808
vn 0.5533 0.0215 -0.8327
vn 0.3820 -0.0000 -0.9242
vn 0.7051 0.0215 -0.7088
vn 0.3832 -0.9236 -0.0000
vn 0.1892 -0.9819 -0.0000
vn 0.1929 -0.9812 -0.0113
vn 0.1871 -0.9821 0.0202
vn 0.0948 -0.0005 -0.9955
vn 0.0947 -0.0005 -0.9955
vn 0.1931 0.0001 -0.9812
vn -0.0110 -0.8319 -0.5549
vn -0.0000 -0.9236 -0.3833
vn -0.0110 -0.7075 -0.7066
vn 0.9775 -0.0000 -0.2110
vn 0.9237 -0.0002 -0.3832
vn 0.9242 0.0199 -0.3814
vn 0.9238 0.0020 -0.3829
vn 0.8327 0.0215 -0.5534
vn 0.7085 0.0216 -0.7054
vn -0.0110 -0.9241 -0.3820
vn -0.0000 -0.9236 -0.3832
vn 0.0001 -0.9958 -0.0917
vn -0.0000 -0.9957 -0.0931
vn 0.0067 -0.9817 -0.1905
vn 0.9779 -0.0000 -0.2091
vn 0.9919 -0.0005 -0.1269
vn -0.0110 -0.5549 -0.8319
vn -0.0110 -0.7066 -0.7075
vn 0.9237 -0.3830 0.0093
vn 0.9237 -0.3832 -0.0018
vn 0.9819 -0.1895 -0.0001
vn 0.8318 -0.5549 0.0111
vn 0.9238 -0.3829 0.0020
vn 0.7073 -0.7068 0.0111
vn -0.0000 -0.1877 -0.9822
vn 0.0113 -0.1929 -0.9812
vn 0.0007 -0.0927 -0.9957
vn -0.0208 -0.1855 -0.9824
vn 0.9966 -0.0824 0.0009
vn 0.9966 -0.0825 0.0009
vn 0.9831 -0.1827 -0.0095
vn 0.5943 -0.6393 -0.4879
vn 0.5242 -0.6383 -0.5638
vn 0.3895 -0.7290 -0.5629
vn 0.6242 -0.7064 -0.3338
vn 0.6609 -0.3536 -0.6619
vn 0.6112 -0.5020 -0.6119
vn 0.2666 -0.8795 -0.3942
vn 0.6015 -0.7778 -0.1823
vn 0.6908 -0.2097 -0.6919
vn -0.2146 0.7191 0.6609
vn -0.6609 0.7191 0.2146
vt 0.381587 0.022070
vt 0.358959 0.042639
vt 0.356985 0.033011
vt 0.339069 0.067621
vt 0.335711 0.059638
vt 0.323303 0.102859
vt 0.318887 0.097518
vt 0.430176 0.096281
vt 0.406374 0.091024
vt 0.430144 0.090925
vt 0.382574 0.095979
vt 0.382585 0.090586
vt 0.406528 0.030643
vt 0.381778 0.033440
vt 0.381605 0.023061
vt 0.425484 0.062949
vt 0.404871 0.040506
vt 0.335056 0.083158
vt 0.311298 0.093906
vt 0.311236 0.083182
vt 0.358847 0.083158
vt 0.335058 0.093882
vt 0.382639 0.083158
vt 0.358847 0.093882
vt 0.311888 0.144494
vt 0.428602 0.054586
vt 0.442179 0.096306
vt 0.453982 0.095230
vt 0.477753 0.093564
vt 0.453906 0.089868
vt 0.477567 0.082971
vt 0.385304 0.093829
vt 0.379942 0.083229
vt 0.385304 0.083229
vt 0.454673 0.136756
vt 0.446115 0.090450
vt 0.459424 0.132061
vt 0.287485 0.093908
vt 0.358728 0.147428
vt 0.383477 0.144619
vt 0.383652 0.154998
vt 0.339770 0.115123
vt 0.360384 0.137565
vt 0.336653 0.123487
vt 0.323053 0.081718
vt 0.406408 0.085950
vt 0.430199 0.080597
vt 0.430199 0.085953
vt 0.382612 0.085947
vt 0.406408 0.080594
vt 0.358962 0.043557
vt 0.356996 0.033942
vt 0.339059 0.068501
vt 0.335712 0.060544
vt 0.453987 0.093905
vt 0.430224 0.083169
vt 0.454048 0.083181
vt 0.430223 0.093893
vt 0.406431 0.083161
vt 0.406431 0.093885
vt 0.318789 0.087531
vt 0.310554 0.041357
vt 0.323307 0.103686
vt 0.319236 0.098293
vt 0.454004 0.080600
vt 0.453974 0.085964
vt 0.477789 0.081657
vt 0.379942 0.093036
vt 0.385304 0.084021
vt 0.385304 0.093036
vt 0.311191 0.144809
vt 0.477890 0.093900
vt 0.408258 0.144085
vt 0.426177 0.109484
vt 0.429536 0.117466
vt 0.441935 0.074235
vt 0.446189 0.080297
vt 0.335019 0.080340
vt 0.358824 0.085561
vt 0.335055 0.085695
vt 0.358831 0.080205
vt 0.404864 0.039446
vt 0.381766 0.032449
vt 0.406514 0.029598
vt 0.425487 0.061860
vt 0.334994 0.090542
vt 0.311211 0.096016
vt 0.311190 0.090585
vt 0.358787 0.090546
vt 0.334995 0.095972
vt 0.358787 0.095976
vt 0.458262 0.036860
vt 0.428594 0.053525
vt 0.442183 0.095229
vt 0.311212 0.081500
vt 0.287443 0.083336
vt 0.311296 0.086861
vt 0.287659 0.094521
vt 0.384082 0.091450
vt 0.378720 0.080257
vt 0.384082 0.080257
vt 0.459459 0.130920
vt 0.454449 0.135905
vt 0.287412 0.094578
vt 0.486315 0.945997
vt 0.506087 0.936165
vt 0.501678 0.951435
vt 0.470337 0.944160
vt 0.496075 0.912189
vt 0.444599 0.912189
vt 0.454359 0.945997
vt 0.487299 0.885404
vt 0.460577 0.856841
vt 0.480097 0.856841
vt 0.453375 0.885404
vt 0.434587 0.936165
vt 0.438995 0.951435
vt 0.465929 0.827598
vt 0.474745 0.827598
vt 0.486398 0.945933
vt 0.487887 0.883992
vt 0.496953 0.910419
vt 0.454520 0.947413
vt 0.451642 0.885677
vt 0.470402 0.944628
vt 0.439359 0.954181
vt 0.443187 0.912901
vt 0.501890 0.951280
vt 0.507295 0.934431
vt 0.463734 0.828547
vt 0.480450 0.856165
vt 0.458583 0.857197
vt 0.425489 0.964691
vt 0.433553 0.937835
vt 0.413522 0.978525
vt 0.423102 0.959513
vt 0.518514 0.955109
vt 0.529345 0.972687
vt 0.516300 0.960482
vt 0.471520 0.800614
vt 0.466907 0.800806
vt 0.469101 0.776974
vt 0.471450 0.798797
vt 0.469224 0.798797
vt 0.470337 0.771545
vt 0.517132 0.956624
vt 0.528249 0.972152
vt 0.515794 0.960517
vt 0.424880 0.960517
vt 0.412425 0.972152
vt 0.423542 0.956624
vt 0.406365 0.096380
vt 0.382639 0.093882
vt 0.306969 0.140224
vt 0.379942 0.093829
vt 0.287484 0.083185
vt 0.382623 0.080591
vt 0.305755 0.046142
vt 0.477689 0.090670
vt 0.379942 0.084021
vt 0.307049 0.141249
vt 0.477889 0.083176
vt 0.406286 0.134455
vt 0.453343 0.032593
vt 0.446263 0.088801
vt 0.378720 0.091450
vt 0.287574 0.083859
vt 0.474924 0.828011
s 0
usemtl 
f 1/1/1 14/2/1 7/3/1
f 7/3/1 13/4/1 8/5/1
f 8/5/1 12/6/1 9/7/1
f 13/8/2 11/9/3 10/10/4
f 11/9/5 3/11/6 2/12/7
f 15/13/8 6/14/8 4/15/8
f 15/13/8 23/16/8 24/17/8
f 20/18/9 22/19/10 19/20/11
f 21/21/12 23/22/13 20/18/14
f 5/23/15 24/24/16 21/21/12
f 18/25/1 9/7/1 12/6/1
f 16/26/8 22/27/8 23/16/8
f 10/10/17 12/28/18 13/8/19
f 18/29/20 26/30/21 28/31/20
f 28/32/22 17/33/22 18/34/22
f 27/35/8 25/36/8 17/37/8
f 27/38/23 19/20/24 22/19/25
f 32/39/26 31/40/26 29/41/26
f 32/39/26 38/42/26 39/43/26
f 33/44/26 37/45/26 38/42/26
f 36/46/27 38/47/28 35/48/29
f 30/49/30 39/50/31 36/46/27
f 4/15/8 49/51/8 40/52/8
f 40/52/8 48/53/8 41/54/8
f 47/55/32 45/56/33 44/57/34
f 48/58/35 46/59/36 45/56/37
f 49/60/38 5/23/15 46/59/36
f 34/61/26 43/62/26 37/45/26
f 41/54/8 47/63/8 50/64/8
f 35/48/29 37/65/39 51/66/40
f 43/67/41 51/66/42 37/65/43
f 42/68/44 53/69/44 43/70/44
f 52/71/8 50/64/8 47/63/8
f 44/57/45 52/72/46 47/55/47
f 31/40/26 54/73/26 29/41/26
f 54/73/26 60/74/26 55/75/26
f 55/75/26 59/76/26 56/77/26
f 60/78/48 58/79/49 57/80/50
f 61/81/51 30/49/30 58/79/49
f 1/1/1 71/82/1 3/83/1
f 62/84/1 70/85/1 71/82/1
f 67/86/52 69/87/53 66/88/54
f 68/89/55 70/90/56 67/86/57
f 2/12/58 71/91/59 68/89/60
f 59/76/26 64/92/26 56/77/26
f 63/93/1 69/94/1 70/85/1
f 57/80/61 59/95/62 60/78/63
f 65/96/64 73/97/65 75/98/64
f 75/99/66 64/100/66 65/101/66
f 69/94/1 64/102/1 74/103/1
f 74/104/67 66/88/68 69/87/69
f 15/105/70 8/106/70 16/107/70
f 4/108/71 7/109/71 15/105/71
f 32/110/72 4/108/72 40/111/72
f 1/112/73 54/113/73 62/114/73
f 4/108/74 29/115/74 1/112/74
f 33/116/75 40/111/75 41/117/75
f 62/114/76 55/118/76 63/119/76
f 46/120/77 30/121/77 36/122/77
f 21/123/78 2/124/78 5/125/78
f 20/126/79 11/127/79 21/123/79
f 45/128/80 36/122/80 35/129/80
f 67/130/81 58/131/81 68/132/81
f 68/132/82 30/121/82 2/124/82
f 5/125/83 2/124/83 30/121/83
f 19/133/84 10/134/84 20/126/84
f 19/133/85 28/135/85 26/136/85
f 51/137/86 53/138/86 44/139/86
f 44/139/87 35/129/87 51/137/87
f 73/140/88 67/130/88 66/141/88
f 66/141/89 75/142/89 73/140/89
f 72/143/90 55/118/90 56/144/90
f 56/144/91 64/145/91 72/143/91
f 9/146/92 17/147/92 25/148/92
f 8/106/93 25/148/93 16/107/93
f 50/149/94 33/116/94 41/117/94
f 50/149/95 42/150/95 34/151/95
f 1/1/1 3/83/1 14/2/1
f 7/3/1 14/2/1 13/4/1
f 8/5/1 13/4/1 12/6/1
f 13/8/19 14/152/3 11/9/96
f 11/9/97 14/152/3 3/11/98
f 15/13/8 24/17/8 6/14/8
f 15/13/8 16/26/8 23/16/8
f 20/18/99 23/22/100 22/19/101
f 21/21/102 24/24/12 23/22/103
f 5/23/104 6/153/15 24/24/12
f 18/25/1 17/154/1 9/7/1
f 16/26/8 25/36/8 22/27/8
f 10/10/105 26/30/106 12/28/107
f 18/29/20 12/28/18 26/30/108
f 28/32/22 27/155/22 17/33/22
f 27/35/8 22/27/8 25/36/8
f 27/38/109 28/156/110 19/20/111
f 32/39/26 39/43/26 31/40/26
f 32/39/26 33/44/26 38/42/26
f 33/44/26 34/61/26 37/45/26
f 36/46/112 39/50/27 38/47/113
f 30/49/114 31/157/30 39/50/27
f 4/15/8 6/14/8 49/51/8
f 40/52/8 49/51/8 48/53/8
f 47/55/115 48/58/116 45/56/117
f 48/58/118 49/60/36 46/59/119
f 49/60/36 6/153/15 5/23/120
f 34/61/26 42/158/26 43/62/26
f 41/54/8 48/53/8 47/63/8
f 35/48/121 38/47/122 37/65/43
f 43/67/123 53/159/124 51/66/125
f 42/68/44 52/160/44 53/69/44
f 52/71/8 42/161/8 50/64/8
f 44/57/126 53/162/127 52/72/127
f 31/40/26 61/163/26 54/73/26
f 54/73/26 61/163/26 60/74/26
f 55/75/26 60/74/26 59/76/26
f 60/78/63 61/81/49 58/79/128
f 61/81/49 31/157/30 30/49/129
f 1/1/1 62/84/1 71/82/1
f 62/84/1 63/93/1 70/85/1
f 67/86/130 70/90/131 69/87/132
f 68/89/133 71/91/55 70/90/134
f 2/12/135 3/11/98 71/91/55
f 59/76/26 65/164/26 64/92/26
f 63/93/1 72/165/1 69/94/1
f 57/80/50 73/97/136 59/95/137
f 65/96/138 59/95/62 73/97/139
f 75/99/66 74/166/66 64/100/66
f 69/94/1 72/165/1 64/102/1
f 74/104/140 75/167/141 66/88/142
f 15/105/70 7/109/70 8/106/70
f 4/108/71 1/112/71 7/109/71
f 32/110/72 29/115/72 4/108/72
f 1/112/73 29/115/73 54/113/73
f 33/116/75 32/110/75 40/111/75
f 62/114/76 54/113/76 55/118/76
f 46/120/143 5/125/143 30/121/143
f 21/123/144 11/127/144 2/124/144
f 20/126/145 10/134/145 11/127/145
f 45/128/146 46/120/146 36/122/146
f 67/130/147 57/168/147 58/131/147
f 68/132/148 58/131/148 30/121/148
f 19/133/149 26/136/149 10/134/149
f 44/139/150 45/128/150 35/129/150
f 73/140/151 57/168/151 67/130/151
f 72/143/90 63/119/90 55/118/90
f 8/106/152 9/146/152 25/148/152
f 50/149/153 34/151/153 33/116/153
