# Blender 4.0.2
# www.blender.org
mtllib SlopedCorner.mtl
o SlopedCorner
v -0.500000 -0.500000 0.500000
v -0.500000 0.000000 0.500000
v -0.500000 -0.500000 -0.500000
v -0.500000 0.500000 -0.500000
v 0.500000 -0.500000 0.500000
v 0.500000 -0.500000 -0.500000
v 0.500000 0.000000 -0.500000
vn -1.0000 -0.0000 -0.0000
vn -0.0000 -0.0000 -1.0000
vn 1.0000 -0.0000 -0.0000
vn 0.4082 0.8165 0.4082
vn -0.0000 -1.0000 -0.0000
vn -0.0000 -0.0000 1.0000
vt 0.625000 0.000000
vt 0.375000 0.250000
vt 0.375000 0.000000
vt 0.625000 0.250000
vt 0.375000 0.500000
vt 0.625000 0.500000
vt 0.375000 0.750000
vt 0.125000 0.750000
vt 0.125000 0.500000
s 0
f 2/1/1 3/2/1 1/3/1
f 4/4/2 6/5/2 3/2/2
f 7/6/3 5/7/3 6/5/3
f 5/7/4 7/6/4 2/1/4
f 6/5/5 1/8/5 3/9/5
f 2/1/1 4/4/1 3/2/1
f 4/4/2 7/6/2 6/5/2
f 2/1/4 7/6/4 4/4/4
f 6/5/5 5/7/5 1/8/5
f 2/1/6 1/8/6 5/7/6
