# Blender 4.0.2
# www.blender.org
mtllib SlopedPanel.mtl
o SlopedPanel
v -0.490761 0.500000 0.456789
v 0.509239 0.500000 0.456789
v 0.509239 0.460000 0.456789
v -0.490761 0.460000 0.456789
v -0.490761 -0.500000 -0.543211
v 0.509239 -0.500000 -0.543211
v 0.509239 -0.500000 -0.503210
v -0.490761 -0.500000 -0.503211
vn -0.0000 0.7071 -0.7071
vn -1.0000 -0.0000 -0.0000
vn -0.0000 -0.7071 0.7071
vn 1.0000 -0.0000 -0.0000
vn -0.0000 -0.0000 1.0000
vn -0.0000 -1.0000 -0.0000
vt 0.014771 0.700819
vt 0.014771 0.011935
vt 0.992060 0.011935
vt 0.992060 0.700819
vt 0.017938 0.803295
vt 0.037366 0.783867
vt 0.969915 0.783867
vt 0.989343 0.803295
vt 0.964418 0.700819
vt 0.964418 0.011935
vt 0.042413 0.011935
vt 0.042413 0.700819
vt 0.018989 0.783717
vt 0.990394 0.783717
vt 0.970966 0.803145
vt 0.038418 0.803145
vt 0.049174 0.780223
vt 0.736061 0.780223
vt 0.736061 0.807699
vt 0.049174 0.807699
vt 0.736089 0.807706
vt 0.049202 0.807706
vt 0.049202 0.780230
vt 0.736089 0.780231
s 0
usemtl 
f 6/1/1 5/2/1 1/3/1
f 1/3/1 2/4/1 6/1/1
f 5/5/2 8/6/2 4/7/2
f 4/7/2 1/8/2 5/5/2
f 3/9/3 4/10/3 8/11/3
f 8/11/3 7/12/3 3/9/3
f 6/13/4 2/14/4 3/15/4
f 3/15/4 7/16/4 6/13/4
f 4/17/5 3/18/5 2/19/5
f 2/19/5 1/20/5 4/17/5
f 7/21/6 8/22/6 5/23/6
f 5/23/6 6/24/6 7/21/6
