# Blender 4.0.2
# www.blender.org
mtllib SlopeTransitionTip.mtl
o SlopeTransitionTip
v -0.500000 -0.500000 0.500000
v -0.500000 -0.500000 -0.500000
v -0.500000 0.000000 -0.500000
v 0.500000 -0.500000 0.000000
v 0.500000 -0.500000 -0.500000
v 0.500000 0.000000 -0.500000
vn -0.0000 -0.0000 -1.0000
vn 1.0000 -0.0000 -0.0000
vn -0.0000 -1.0000 -0.0000
vn -1.0000 -0.0000 -0.0000
vn 0.3333 0.6667 0.6667
vn -0.0000 0.8944 0.4472
vt 0.625000 0.250000
vt 0.375000 0.500000
vt 0.375000 0.250000
vt 0.625000 0.500000
vt 0.375000 0.750000
vt 0.125000 0.750000
vt 0.125000 0.500000
s 0
usemtl 
f 3/1/1 5/2/1 2/3/1
f 6/4/2 4/5/2 5/2/2
f 5/2/3 1/6/3 2/7/3
f 2/3/4 1/6/4 3/1/4
f 3/1/1 6/4/1 5/2/1
f 5/2/3 4/5/3 1/6/3
f 4/5/5 6/4/5 1/6/5
f 3/1/6 1/6/6 6/4/6
