# Blender 4.0.2
# www.blender.org
mtllib SlopeTransitionMirrored.mtl
o SlopeTransitionMirrored
v -0.500000 -0.500000 0.500000
v -0.500000 -0.500000 -0.500000
v -0.500000 0.000000 -0.500000
v 0.500000 -0.500000 0.500000
v 0.500000 -0.500000 -0.500000
v 0.500000 0.500000 -0.500000
vn -0.4082 0.8165 0.4082
vn -0.0000 -0.0000 -1.0000
vn 1.0000 -0.0000 -0.0000
vn -0.0000 -1.0000 -0.0000
vn -1.0000 -0.0000 -0.0000
vn -0.0000 0.7071 0.7071
vt 0.625000 0.500000
vt 0.625000 0.250000
vt 0.125000 0.750000
vt 0.375000 0.500000
vt 0.375000 0.250000
vt 0.375000 0.750000
vt 0.125000 0.500000
s 0
usemtl 
f 6/1/1 3/2/1 1/3/1
f 3/2/2 5/4/2 2/5/2
f 6/1/3 4/6/3 5/4/3
f 5/4/4 1/3/4 2/7/4
f 2/5/5 1/3/5 3/2/5
f 3/2/2 6/1/2 5/4/2
f 6/1/6 1/3/6 4/6/6
f 5/4/4 4/6/4 1/3/4
