# Blender 4.0.2
# www.blender.org
mtllib Slope2x1Base.mtl
o Slope2x1Base
v -0.500000 -0.500000 0.500000
v -0.500000 0.500000 0.500000
v -0.500000 -0.500000 -0.500000
v -0.500000 0.500000 -0.500000
v 0.500000 -0.500000 0.500000
v 0.500000 0.000000 0.500000
v 0.500000 -0.500000 -0.500000
v 0.500000 0.000000 -0.500000
vn 0.4472 0.8944 -0.0000
vn -1.0000 -0.0000 -0.0000
vn 1.0000 -0.0000 -0.0000
vn -0.0000 -0.0000 -1.0000
vn -0.0000 -0.0000 1.0000
vn -0.0000 -1.0000 -0.0000
vn -0.0000 1.0000 -0.0000
vt 0.000000 0.000000
s 0
usemtl 
f 2/1/1 6/1/1 4/1/1
f 8/1/1 4/1/1 6/1/1
f 7/1/2 5/1/2 8/1/2
f 6/1/3 5/1/3 8/1/3
f 8/1/4 7/1/4 4/1/4
f 3/1/4 4/1/4 7/1/4
f 5/1/5 6/1/5 2/1/5
f 2/1/5 1/1/5 5/1/5
f 1/1/2 2/1/2 3/1/2
f 2/1/2 4/1/2 3/1/2
f 3/1/6 7/1/6 1/1/6
f 5/1/7 7/1/7 1/1/7
