# Blender 4.0.2
# www.blender.org
mtllib SlopeTransition.mtl
o SlopeTransition
v -0.500000 -0.500000 0.500000
v -0.500000 -0.500000 -0.500000
v -0.500000 0.500000 -0.500000
v 0.500000 -0.500000 0.500000
v 0.500000 -0.500000 -0.500000
v 0.500000 0.000000 -0.500000
vn -0.0000 -0.0000 -1.0000
vn 1.0000 -0.0000 -0.0000
vn -1.0000 -0.0000 -0.0000
vn -0.0000 -1.0000 -0.0000
vn 0.4082 0.8165 0.4082
vn -0.0000 0.7071 0.7071
vt 0.625000 0.250000
vt 0.375000 0.500000
vt 0.375000 0.250000
vt 0.625000 0.500000
vt 0.375000 0.750000
vt 0.125000 0.750000
vt 0.125000 0.500000
s 0
usemtl 
f 3/1/1 5/2/1 2/3/1
f 6/4/2 4/5/2 5/2/2
f 2/3/3 1/6/3 3/1/3
f 5/2/4 1/6/4 2/7/4
f 6/4/5 3/1/5 4/5/5
f 3/1/1 6/4/1 5/2/1
f 4/5/6 3/1/6 1/6/6
f 5/2/4 4/5/4 1/6/4
