# Blender 4.0.2
# www.blender.org
mtllib SquareSlopedCornerTip.mtl
o SquareSlopedCornerTip
v -0.500000 -0.500000 0.500000
v -0.500000 -0.500000 -0.500000
v -0.500000 0.000000 -0.500000
v 0.500000 -0.500000 0.500000
v 0.500000 -0.500000 -0.500000
vn -0.0000 -0.0000 -1.0000
vn 0.4472 0.8944 -0.0000
vn -0.0000 0.8944 0.4472
vn -0.0000 -1.0000 -0.0000
vn -1.0000 -0.0000 -0.0000
vt 0.625000 0.250000
vt 0.375000 0.500000
vt 0.375000 0.250000
vt 0.375000 0.750000
vt 0.125000 0.750000
vt 0.125000 0.500000
s 0
usemtl 
f 3/1/1 5/2/1 2/3/1
f 5/2/2 3/1/2 4/4/2
f 3/1/3 1/5/3 4/4/3
f 5/2/4 1/5/4 2/6/4
f 2/3/5 1/5/5 3/1/5
f 5/2/4 4/4/4 1/5/4
